<svg width="580" height="480" viewBox="0 0 580 480" fill="none" xmlns="http://www.w3.org/2000/svg">
<g id="about" clip-path="url(#clip0)">
<path id="background" d="M350.095 459.077C477.068 459.077 580 356.309 580 229.538C580 102.768 477.068 0 350.095 0C223.123 0 120.191 102.768 120.191 229.538C120.191 356.309 223.123 459.077 350.095 459.077Z" fill="white"/>
<g id="platform">
<path id="Vector" d="M562.125 450.462C562.125 459.978 436.289 480 281.063 480C125.836 480 0 459.978 0 450.462C0 440.946 125.836 445.539 281.063 445.539C436.289 445.539 562.125 440.946 562.125 450.462Z" fill="#D0E1F9"/>
<path id="Vector_2" opacity="0.1" d="M562.125 449.277C562.125 458.793 436.289 478.815 281.063 478.815C125.836 478.815 0 458.793 0 449.277C0 439.761 125.836 444.354 281.063 444.354C436.289 444.354 562.125 439.761 562.125 449.277Z" fill="black"/>
<path id="Vector_3" d="M281.063 467.692C436.289 467.692 562.125 459.978 562.125 450.462C562.125 440.945 436.289 433.231 281.063 433.231C125.836 433.231 0 440.945 0 450.462C0 459.978 125.836 467.692 281.063 467.692Z" fill="#D0E1F9"/>
</g>
<g id="person">
<path id="Vector_4" d="M352.956 144.809C352.956 144.809 360.841 161.341 357.687 169.213C354.533 177.085 369.514 185.745 369.514 185.745L389.226 174.724V160.554L386.072 154.256C386.072 154.256 373.456 147.171 375.033 136.15C376.61 125.129 352.956 144.809 352.956 144.809Z" fill="#F3C4C4"/>
<path id="Vector_5" opacity="0.1" d="M352.956 144.809C352.956 144.809 360.841 161.341 357.687 169.213C354.533 177.085 369.514 185.745 369.514 185.745L389.226 174.724V160.554L386.072 154.256C386.072 154.256 373.456 147.171 375.033 136.15C376.61 125.129 352.956 144.809 352.956 144.809Z" fill="#FFCFCF"/>
<path id="Vector_6" d="M337.971 214.085C337.971 214.085 336.394 231.404 336.394 233.766C336.394 236.128 334.028 244 334.028 244C334.028 244 325.355 284.148 319.836 288.084C314.316 292.02 311.162 316.424 319.836 314.849C328.509 313.275 330.874 292.02 330.874 292.02L348.826 258.176L351.375 217.234L337.971 214.085Z" fill="#FFCFCF"/>
<path id="Vector_7" d="M344.281 179.447H337.973C337.973 179.447 331.666 217.234 337.973 218.808C344.281 220.383 356.108 220.383 356.108 220.383L344.281 179.447Z" fill="#4D648D"/>
<path id="Vector_8" d="M379.758 422.698L382.912 437.655L389.22 432.932L386.066 419.549L379.758 421.911V422.698Z" fill="#FFB9B9"/>
<path id="Vector_9" d="M351.379 262.892L346.648 266.041C346.648 266.041 344.283 293.594 349.802 314.849C355.321 336.103 359.264 361.294 359.264 361.294C359.264 361.294 368.725 424.272 371.091 425.846C373.456 427.421 388.437 428.208 389.226 425.059C390.014 421.91 383.706 362.869 383.706 362.869C383.706 362.869 378.975 313.274 382.918 306.976C382.918 306.976 395.533 361.294 399.476 366.805C399.476 366.805 404.995 426.634 408.149 428.208C411.303 429.783 426.284 430.57 427.072 427.421C427.861 424.272 422.341 356.571 419.976 351.061C417.611 345.55 416.822 263.679 411.303 264.467C405.783 265.254 351.379 262.892 351.379 262.892Z" fill="#1E1F26"/>
<path id="Vector_10" d="M360.839 151.895C370.855 151.895 378.974 143.788 378.974 133.789C378.974 123.789 370.855 115.683 360.839 115.683C350.823 115.683 342.704 123.789 342.704 133.789C342.704 143.788 350.823 151.895 360.839 151.895Z" fill="#FFCFCF"/>
<path id="Vector_11" d="M367.934 173.937L363.991 166.852C363.991 166.852 359.261 160.554 356.895 162.129C354.53 163.703 354.53 169.214 354.53 169.214C354.53 169.214 336.395 175.512 337.972 184.171C339.549 192.83 349.799 207.788 349.799 207.788C349.799 207.788 351.376 220.383 349.799 223.532C348.222 226.681 345.068 229.043 347.433 232.191C349.799 235.34 350.587 236.128 349.799 240.064C349.01 244 347.433 245.574 349.01 247.149C350.587 248.723 348.222 265.255 346.645 266.042C345.068 266.829 397.107 274.701 401.05 272.34C404.992 269.978 416.031 269.978 415.242 267.616C414.454 265.255 411.3 251.085 411.3 248.723C411.3 246.361 411.3 236.127 410.511 235.34C409.723 234.553 411.3 222.745 411.3 222.745L407.357 189.682L419.973 170.001C419.973 170.001 416.819 158.98 401.838 157.406C386.857 155.831 382.713 151.895 382.713 151.895C382.713 151.895 381.338 158.98 378.184 160.554C375.03 162.129 367.934 173.937 367.934 173.937Z" fill="#4D648D"/>
<path id="Vector_12" d="M425.493 195.191L430.224 230.616L419.973 281.786C419.973 281.786 416.031 310.913 408.146 310.125C400.262 309.338 408.146 278.637 408.146 278.637L414.454 230.616C414.454 230.616 404.204 206.212 406.569 203.064C408.935 199.915 425.493 195.191 425.493 195.191Z" fill="#FFCFCF"/>
<path id="Vector_13" d="M386.859 430.57C386.859 430.57 376.609 425.059 374.244 425.847C371.878 426.634 369.513 437.655 369.513 437.655C369.513 437.655 351.378 451.038 363.205 454.186C375.032 457.335 379.763 450.25 379.763 450.25C379.763 450.25 391.59 443.953 391.59 442.378C391.59 440.804 390.013 430.57 390.013 430.57H386.859Z" fill="#1E1F26"/>
<path id="Vector_14" d="M410.513 426.634C410.513 426.634 405.782 452.612 408.936 454.186C412.09 455.761 425.494 458.123 427.071 454.186C428.648 450.25 428.648 440.804 427.859 437.655C427.071 434.506 424.705 426.634 424.705 426.634H410.513Z" fill="#1E1F26"/>
<path id="Vector_15" d="M357.678 105.15C356.972 104.939 356.223 104.916 355.506 105.085C354.601 105.38 354.007 106.215 353.316 106.869C351.508 108.583 348.925 109.119 346.568 109.931C344.21 110.743 341.731 112.18 341.141 114.599C340.998 115.572 340.912 116.553 340.884 117.537C340.532 120.39 338.353 122.959 338.742 125.808C338.997 127.669 340.326 129.247 340.599 131.106C340.903 133.177 339.854 135.334 340.439 137.345C341.012 139.316 342.951 140.517 344.737 141.532C345.503 136.677 346.423 131.849 347.497 127.05C347.619 126.183 347.957 125.36 348.48 124.657C350.066 122.864 353.175 123.885 355.233 122.66C356.014 122.195 356.594 121.427 357.415 121.035C359.792 119.901 362.363 122.414 364.997 122.437C366.16 122.447 367.435 121.986 368.417 122.608C368.851 122.924 369.195 123.347 369.417 123.835C370.356 125.595 370.872 127.571 371.967 129.238C373.062 130.905 375.022 132.265 376.963 131.798C376.667 130.295 377.845 128.943 378.317 127.485C379.129 124.978 377.802 122.256 378.122 119.64C378.422 117.184 380.025 114.301 378.266 112.557C377.665 112.051 376.952 111.693 376.186 111.515C369.963 109.543 364.215 106.238 357.678 105.15Z" fill="#2F2E41"/>
<path id="Vector_16" d="M412.084 166.851L419.969 170C419.969 170 430.219 203.063 427.854 203.063C425.488 203.063 404.2 208.574 404.2 206.212C404.2 203.85 405.777 166.851 412.084 166.851Z" fill="#4D648D"/>
</g>
<g id="messages">
<g id="message1">
<path id="Vector_17"  d="M287.225 99.6919H43.144V179.692H52.3895V200.615L73.346 179.692H287.225V99.6919Z" fill="#D0E1F9"/>
<path id="Vector_18" class='line' opacity="0.3" d="M258.874 112.923H71.499V120.308H258.874V112.923Z" fill="#4D648D"/>
<path id="Vector_19" class='line' opacity="0.3" d="M165.187 127.077H71.499V134.461H165.187V127.077Z" fill="#4D648D"/>
<path id="Vector_20" class='circle' opacity="0.3" d="M81.9772 167.237C87.7642 167.237 92.4554 162.553 92.4554 156.775C92.4554 150.997 87.7642 146.313 81.9772 146.313C76.1903 146.313 71.499 150.997 71.499 156.775C71.499 162.553 76.1903 167.237 81.9772 167.237Z" fill="#4D648D"/>
</g>
<g id="message2">
<path id="Vector_21"  d="M86.2925 208H330.373V288H321.128V308.923L300.171 288H86.2925V208Z" fill="#D0E1F9"/>
<path id="Vector_22" class='line' d="M295.856 220H108.481V227.385H295.856V220Z" fill="#4D648D"/>
<path id="Vector_23" class='line' d="M295.324 233.481H201.636V240.866H295.324V233.481Z" fill="#4D648D"/>
<path id="Vector_24" class='circle' d="M284.466 273.641C290.253 273.641 294.944 268.958 294.944 263.18C294.944 257.402 290.253 252.718 284.466 252.718C278.679 252.718 273.988 257.402 273.988 263.18C273.988 268.958 278.679 273.641 284.466 273.641Z" fill="#4D648D"/>
</g>
<g id="message3">
<path id="Vector_25"  d="M287.225 315.077H43.144V395.077H52.3895V416L73.346 395.077H287.225V315.077Z" fill="#D0E1F9"/>
<path id="Vector_26" class='line' opacity="0.3" d="M258.874 328.308H71.499V335.692H258.874V328.308Z" fill="#4D648D"/>
<path id="Vector_27" class='line' opacity="0.3" d="M165.187 342.461H71.499V349.846H165.187V342.461Z" fill="#4D648D"/>
<path id="Vector_28" class='circle' opacity="0.3" d="M81.9772 382.621C87.7642 382.621 92.4554 377.937 92.4554 372.16C92.4554 366.382 87.7642 361.698 81.9772 361.698C76.1903 361.698 71.499 366.382 71.499 372.16C71.499 377.937 76.1903 382.621 81.9772 382.621Z" fill="#4D648D"/>
</g>
</g>
</g>
<defs>
<clipPath id="clip0">
<rect width="580" height="480" fill="white"/>
</clipPath>
</defs>
</svg>
