<svg width="611" height="506" viewBox="0 0 611 506" fill="none" xmlns="http://www.w3.org/2000/svg">
<g id="about" clip-path="url(#clip0)">
<path id="background" d="M368.472 483.944C502.109 483.944 610.444 375.609 610.444 241.972C610.444 108.335 502.109 0 368.472 0C234.835 0 126.5 108.335 126.5 241.972C126.5 375.609 234.835 483.944 368.472 483.944Z" fill="white"/>
<g id="platform">
<path id="Vector" d="M591.631 474.862C591.631 484.894 459.19 506 295.815 506C132.441 506 0 484.894 0 474.862C0 464.83 132.441 469.672 295.815 469.672C459.19 469.672 591.631 464.83 591.631 474.862Z" fill="#D0E1F9"/>
<path id="Vector_2" opacity="0.1" d="M591.631 474.862C591.631 484.894 459.19 506 295.815 506C132.441 506 0 484.894 0 474.862C0 464.83 132.441 469.672 295.815 469.672C459.19 469.672 591.631 464.83 591.631 474.862Z" fill="black"/>
<path id="Vector_3" d="M295.815 493.026C459.19 493.026 591.631 484.894 591.631 474.862C591.631 464.83 459.19 456.698 295.815 456.698C132.441 456.698 0 464.83 0 474.862C0 484.894 132.441 493.026 295.815 493.026Z" fill="#D0E1F9"/>
</g>
<g id="plant">
<path id="Vector_4" d="M513.908 463.553C513.908 463.553 522.064 463.301 524.522 461.551C526.98 459.801 537.068 457.711 537.678 460.518C538.287 463.325 549.934 474.479 540.726 474.553C531.518 474.628 519.331 473.119 516.878 471.625C514.425 470.13 513.908 463.553 513.908 463.553Z" fill="#A8A8A8"/>
<path id="Vector_5" d="M468.497 388.85C468.497 429.852 494.219 463.03 526.007 463.03L468.497 388.85Z" fill="#D0E1F9"/>
<path id="Vector_6" d="M526.007 463.029C526.007 421.567 554.711 388.016 590.185 388.016L526.007 463.029Z" fill="#6C63FF"/>
<path id="Vector_7" d="M489.333 392.567C489.333 431.514 505.736 463.03 526.007 463.03L489.333 392.567Z" fill="#6C63FF"/>
<path id="Vector_8" d="M526.007 463.029C526.007 410.05 559.185 367.179 600.186 367.179L526.007 463.029Z" fill="#D0E1F9"/>
<path id="Vector_9" opacity="0.2" d="M540.891 473.576C531.683 473.651 519.496 472.142 517.042 470.648C515.174 469.51 514.43 465.426 514.18 463.542C514.008 463.549 513.908 463.553 513.908 463.553C513.908 463.553 514.425 470.13 516.878 471.625C519.331 473.119 531.518 474.628 540.726 474.553C543.384 474.532 544.302 473.586 544.252 472.186C543.883 473.032 542.869 473.56 540.891 473.576Z" fill="black"/>
</g>
<g id="person">
<path id="Vector_10" d="M371.479 152.653C371.479 152.653 379.777 170.08 376.458 178.379C373.138 186.678 388.906 195.806 388.906 195.806L409.652 184.188V169.251L406.333 162.612C406.333 162.612 393.055 155.143 394.715 143.525C396.374 131.907 371.479 152.653 371.479 152.653Z" fill="#FFCFCF"/>
<path id="Vector_11" opacity="0.1" d="M371.479 152.653C371.479 152.653 379.777 170.08 376.458 178.379C373.138 186.678 388.906 195.806 388.906 195.806L409.652 184.188V169.251L406.333 162.612C406.333 162.612 393.055 155.143 394.715 143.525C396.374 131.907 371.479 152.653 371.479 152.653Z" fill="black"/>
<path id="Vector_12" d="M355.711 225.682C355.711 225.682 354.051 243.939 354.051 246.428C354.051 248.918 351.562 257.216 351.562 257.216C351.562 257.216 342.433 299.539 336.624 303.689C330.815 307.838 327.496 333.564 336.624 331.904C345.753 330.244 348.242 307.838 348.242 307.838L367.136 272.16L369.819 229.001L355.711 225.682Z" fill="#FFCFCF"/>
<path id="Vector_13" d="M362.35 189.167H355.711C355.711 189.167 349.072 229.001 355.711 230.661C362.35 232.32 374.798 232.32 374.798 232.32L362.35 189.167Z" fill="#575A89"/>
<path id="Vector_14" d="M399.693 445.595L403.013 461.362L409.652 456.383L406.332 442.275L399.693 444.765V445.595Z" fill="#FFCFCF"/>
<path id="Vector_15" d="M369.819 277.133L364.84 280.452C364.84 280.452 362.35 309.497 368.159 331.904C373.968 354.31 378.118 380.865 378.118 380.865C378.118 380.865 388.076 447.254 390.566 448.914C393.055 450.574 408.822 451.404 409.652 448.084C410.482 444.765 403.843 382.525 403.843 382.525C403.843 382.525 398.864 330.244 403.013 323.605C403.013 323.605 416.291 380.865 420.441 386.674C420.441 386.674 426.25 449.744 429.569 451.404C432.888 453.063 448.656 453.893 449.486 450.574C450.316 447.254 444.507 375.886 442.017 370.077C439.527 364.268 438.698 277.963 432.888 278.793C427.079 279.622 369.819 277.133 369.819 277.133Z" fill="#2F2E41"/>
<path id="Vector_16" d="M379.777 160.122C390.319 160.122 398.864 151.577 398.864 141.036C398.864 130.494 390.319 121.949 379.777 121.949C369.236 121.949 360.69 130.494 360.69 141.036C360.69 151.577 369.236 160.122 379.777 160.122Z" fill="#FFCFCF"/>
<path id="Vector_17" d="M387.246 183.359L383.097 175.89C383.097 175.89 378.118 169.251 375.628 170.911C373.139 172.57 373.139 178.379 373.139 178.379C373.139 178.379 354.052 185.018 355.712 194.147C357.371 203.275 368.16 219.043 368.16 219.043C368.16 219.043 369.819 232.32 368.16 235.64C366.5 238.959 363.18 241.449 365.67 244.768C368.16 248.088 368.989 248.918 368.16 253.067C367.33 257.216 365.67 258.876 367.33 260.536C368.989 262.195 366.5 279.623 364.84 280.452C363.18 281.282 417.951 289.581 422.101 287.091C426.25 284.602 437.868 284.602 437.038 282.112C436.208 279.623 432.889 264.685 432.889 262.195C432.889 259.706 432.889 248.918 432.059 248.088C431.229 247.258 432.889 234.81 432.889 234.81L428.739 199.956L442.017 179.209C442.017 179.209 438.698 167.591 422.93 165.932C407.163 164.272 402.801 160.123 402.801 160.123C402.801 160.123 401.354 167.591 398.035 169.251C394.715 170.911 387.246 183.359 387.246 183.359Z" fill="#575A89"/>
<path id="Vector_18" d="M447.826 205.765L452.805 243.108L442.017 297.049C442.017 297.049 437.868 327.754 429.569 326.924C421.271 326.094 429.569 293.73 429.569 293.73L436.208 243.108C436.208 243.108 425.42 217.383 427.909 214.063C430.399 210.744 447.826 205.765 447.826 205.765Z" fill="#FFCFCF"/>
<path id="Vector_19" d="M407.162 453.893C407.162 453.893 396.374 448.084 393.884 448.914C391.395 449.744 388.905 461.362 388.905 461.362C388.905 461.362 369.818 475.469 382.266 478.789C394.714 482.108 399.693 474.639 399.693 474.639C399.693 474.639 412.141 468.001 412.141 466.341C412.141 464.681 410.482 453.893 410.482 453.893H407.162Z" fill="#2F2E41"/>
<path id="Vector_20" d="M432.058 449.744C432.058 449.744 427.079 477.13 430.398 478.789C433.718 480.449 447.825 482.939 449.485 478.789C451.145 474.64 451.145 464.682 450.315 461.362C449.485 458.043 446.996 449.744 446.996 449.744H432.058Z" fill="#2F2E41"/>
<path id="Vector_21" d="M376.448 110.846C375.705 110.623 374.916 110.599 374.161 110.777C373.209 111.088 372.583 111.968 371.857 112.658C369.954 114.465 367.234 115.03 364.754 115.886C362.273 116.742 359.663 118.257 359.042 120.807C358.892 121.833 358.802 122.867 358.771 123.903C358.402 126.911 356.107 129.62 356.518 132.622C356.786 134.584 358.184 136.248 358.471 138.207C358.791 140.391 357.688 142.665 358.303 144.784C358.907 146.862 360.947 148.128 362.827 149.198C363.633 144.08 364.602 138.991 365.732 133.932C365.861 133.017 366.216 132.15 366.767 131.409C368.435 129.519 371.708 130.595 373.874 129.304C374.696 128.813 375.307 128.004 376.171 127.591C378.672 126.395 381.378 129.044 384.151 129.069C385.374 129.08 386.716 128.594 387.75 129.249C388.206 129.583 388.569 130.028 388.803 130.543C389.791 132.398 390.334 134.481 391.486 136.238C392.638 137.995 394.702 139.429 396.745 138.937C396.433 137.352 397.673 135.927 398.17 134.391C399.024 131.747 397.627 128.878 397.964 126.12C398.28 123.531 399.967 120.492 398.116 118.654C397.484 118.12 396.733 117.743 395.927 117.555C389.378 115.476 383.328 111.993 376.448 110.846Z" fill="#2F2E41"/>
<path id="Vector_22" d="M433.718 175.89L442.017 179.209C442.017 179.209 452.805 214.063 450.315 214.063C447.826 214.063 425.419 219.872 425.419 217.383C425.419 214.893 427.079 175.89 433.718 175.89Z" fill="#575A89"/>
</g>
<g id="message1">
<path id="Vector_23" d="M302.303 105.092H45.4102V189.426H55.1409V211.482L77.1973 189.426H302.303V105.092Z" fill="#D0E1F9"/>
<path id="Vector_24" opacity="0.3" d="M272.461 119.04H75.251V126.825H272.461V119.04Z" fill="#6C63FF"/>
<path id="Vector_25" opacity="0.3" d="M173.856 133.961H75.251V141.746H173.856V133.961Z" fill="#6C63FF"/>
<path id="Vector_26" opacity="0.3" d="M86.2792 175.478C92.3699 175.478 97.3074 170.541 97.3074 164.45C97.3074 158.359 92.3699 153.422 86.2792 153.422C80.1885 153.422 75.251 158.359 75.251 164.45C75.251 170.541 80.1885 175.478 86.2792 175.478Z" fill="#6C63FF"/>
</g>
<g id="message2">
<path id="Vector_27" d="M90.8203 219.267H347.713V303.6H337.982V325.656L315.926 303.6H90.8203V219.267Z" fill="#D0E1F9"/>
<path id="Vector_28" d="M311.384 231.917H114.174V239.702H311.384V231.917Z" fill="#6C63FF"/>
<path id="Vector_29" d="M212.779 246.837H114.174V254.622H212.779V246.837Z" fill="#6C63FF"/>
<path id="Vector_30" d="M125.202 288.356C131.293 288.356 136.23 283.418 136.23 277.328C136.23 271.237 131.293 266.299 125.202 266.299C119.111 266.299 114.174 271.237 114.174 277.328C114.174 283.418 119.111 288.356 125.202 288.356Z" fill="#6C63FF"/>
</g>
<g id="message3">
<path id="Vector_31" d="M302.303 332.144H45.4102V416.477H55.1409V438.533L77.1973 416.477H302.303V332.144Z" fill="#D0E1F9"/>
<path id="Vector_32" opacity="0.3" d="M272.461 346.091H75.251V353.876H272.461V346.091Z" fill="#6C63FF"/>
<path id="Vector_33" opacity="0.3" d="M173.856 361.012H75.251V368.797H173.856V361.012Z" fill="#6C63FF"/>
<path id="Vector_34" opacity="0.3" d="M86.2792 402.53C92.3699 402.53 97.3074 397.592 97.3074 391.501C97.3074 385.411 92.3699 380.473 86.2792 380.473C80.1885 380.473 75.251 385.411 75.251 391.501C75.251 397.592 80.1885 402.53 86.2792 402.53Z" fill="#6C63FF"/>
</g>
</g>
<defs>
<clipPath id="clip0">
<rect width="610.444" height="506" fill="white"/>
</clipPath>
</defs>
</svg>
