<svg width="840" height="148" xmlns="http://www.w3.org/2000/svg">
 <!-- Created with Method Draw - http://github.com/duopixel/Method-Draw/ -->
 <g>
  <title>background</title>
  <rect fill="none" id="canvas_background" height="150" width="842" y="-1" x="-1"/>
  <g display="none" overflow="visible" y="0" x="0" height="100%" width="100%" id="canvasGrid">
   <rect fill="url(#gridpattern)" stroke-width="0" y="0" x="0" height="100%" width="100%"/>
  </g>
 </g>
 <g>
  <title>Layer 1</title>
  <path d="m838.72847,123.36155c0,0 -3.07691,-1.53843 -9.23084,-6.15388c-6.15381,-4.61539 -11.91211,-9.76094 -20.00012,-15.38472c-7.36536,-5.12125 -13.98596,-7.41899 -29.23096,-15.38472c-17.08533,-8.92729 -35.29382,-15.66505 -53.84656,-21.53862c-15.31298,-4.8479 -30.6206,-6.73915 -47.69262,-10.7693c-15.26978,-3.60469 -29.36792,-7.0727 -44.61573,-10.76931c-10.88488,-2.6389 -26.04431,-5.29621 -43.07714,-7.69236c-15.31079,-2.1539 -27.56287,-3.73307 -41.53882,-6.1539c-12.22156,-2.11692 -27.82031,-2.33772 -47.69263,-6.15388c-20.15747,-3.87091 -40.18506,-6.20513 -58.46197,-9.23084c-12.51618,-2.07203 -23.06678,-6.23822 -35.38483,-7.69236c-13.83539,-1.63326 -33.84638,-1.53847 -53.84656,-1.53847c-18.46167,0 -33.8761,0.95597 -49.23108,0c-12.37964,-0.77073 -27.6925,-3.07695 -41.53875,-3.07695c-10.76935,0 -23.16327,-0.57847 -35.38489,1.53847c-13.97589,2.42082 -24.43305,6.60544 -35.38483,10.76931c-9.09497,3.45791 -15.71185,5.64807 -23.07709,10.76931c-8.08801,5.62379 -14.56738,11.5997 -16.92321,23.07708c-1.5467,7.53527 -1.01929,14.3232 1.53845,18.46167c2.28772,3.70159 7.69238,6.1539 13.84625,7.69236c6.15393,1.53847 12.3078,3.07695 18.46167,3.07695c4.61542,0 8.0437,1.76627 12.3078,0c2.01007,-0.83262 4.48853,-1.62562 7.69238,-6.15389c4.44294,-6.27957 7.69233,-15.38473 7.69233,-21.53861c0,-6.15389 -0.51069,-12.66065 -3.07691,-18.46167c-2.24408,-5.07286 -7.97858,-8.75781 -10.76935,-10.76931c-1.76501,-1.27217 -6.15387,-4.61542 -12.30774,-6.15389c-6.15393,-1.53847 -12.19366,-3.84242 -20.00018,-4.61541c-7.65491,-0.75798 -15.45819,-1.34299 -27.6925,0c-14.09931,1.54771 -24.75574,7.37803 -35.38483,12.30777c-6.24164,2.89486 -14.70477,6.27336 -23.07709,12.30778c-7.06018,5.08869 -14.37085,13.34992 -23.07709,23.07709c-6.56988,7.34028 -15.68591,16.7566 -21.53863,27.6925c-6.49298,12.1323 -11.12586,24.50425 -13.84625,33.84639c-1.7735,6.09031 -1.0456,7.7321 -1.53846,10.76931c-0.77929,4.80226 -1.53851,9.23084 -1.53851,10.76931c0,3.07695 -3.0769,6.15388 -1.53845,6.15388c1.53845,0 -0.78925,-2.45232 -3.07694,-6.15388c-2.5577,-4.13849 -5.3746,-10.58246 -6.1539,-15.38472c-0.73932,-4.55582 -2.28656,-7.42121 -3.07693,-10.76932c-1.06043,-4.49195 -2.29764,-10.58248 -3.07694,-15.38472c-0.24643,-1.5186 -1.89193,-1.49732 -1.53848,0c0.79038,3.34811 2.75992,7.82687 6.1539,15.38472c2.81854,6.27644 4.29209,12.42846 6.15387,16.9232c1.31647,3.17827 0.94974,4.73253 1.53848,6.15389c0.83262,2.01013 1.98908,1.9891 3.07694,3.07695c1.08786,1.08786 0.94971,1.42135 1.53845,0c1.66522,-4.02024 5.71411,-6.47956 9.23084,-10.76931c4.13812,-5.04776 6.63086,-6.67311 10.76934,-9.23083c5.55237,-3.43155 10.37964,-8.26369 16.92316,-12.30779c5.85272,-3.61718 9.23084,-4.61541 10.76935,-4.61541l0,-1.53847l1.53845,0" id="svg_15" stroke-width="3.5" stroke="#ffff00" fill="none"/>
 </g>
</svg>