<svg width="765" height="151" xmlns="http://www.w3.org/2000/svg">
 <!-- Created with Method Draw - http://github.com/duopixel/Method-Draw/ -->
 <g>
  <title>background</title>
  <rect fill="none" id="canvas_background" height="153" width="767" y="-1" x="-1"/>
 </g>
 <g>
  <title>Layer 1</title>
  <path d="m762.82675,100.57864c-7.69226,-1.9231 -15.51978,-6.3089 -22.11536,-8.65387c-6.89966,-2.45309 -13.80237,-5.77371 -23.0769,-9.61536c-13.11621,-5.43295 -24.89111,-12.78409 -34.61536,-16.34616c-11.42053,-4.18344 -21.98279,-7.17816 -37.5,-11.53845c-19.08362,-5.36243 -39.24689,-10.26099 -55.76923,-14.4231c-18.10413,-4.56058 -36.61304,-7.18985 -57.69232,-10.5769c-26.0686,-4.18872 -52.86798,-8.80133 -77.88458,-11.53845c-27.86713,-3.04901 -51.91901,-5.81256 -72.11542,-7.69232c-21.14966,-1.96848 -39.37543,-4.37024 -57.69226,-5.76923c-20.15649,-1.53952 -33.62115,-1.4418 -44.23077,-1.92307c-12.48718,-0.56641 -21.15381,0 -31.73077,0c-11.53845,0 -22.07941,0.48016 -31.73077,0.96152c-10.56378,0.52686 -19.22156,1.04813 -27.88458,1.9231c-10.56677,1.06723 -20.08063,3.40518 -27.88458,4.80768c-8.56982,1.54013 -15.31995,3.04059 -22.11542,5.76923c-7.62378,3.06122 -15.60352,6.43814 -22.11536,11.53848c-6.97906,5.46628 -11.26355,9.81888 -13.46155,12.49997c-1.72424,2.10324 -2.91486,5.20395 -0.96155,8.65387c2.67993,4.73325 7.37634,8.17056 11.53845,10.5769c6.3396,3.66522 12.38458,4.30933 19.23077,5.76923c6.6496,1.418 12.5,1.9231 15.38464,1.9231c1.92303,0 3.84613,0 5.76923,0c2.88458,0 7.0885,-1.33185 10.5769,-3.84616c3.30939,-2.38528 4.31366,-3.6767 4.80768,-5.76923c0.44183,-1.87164 0.96155,-2.88461 0.96155,-5.76923c0,-1.9231 0.27863,-2.92587 0,-3.84616c-1.00464,-3.31812 -4.62756,-5.00656 -6.73077,-6.73077c-2.68109,-2.19794 -6.54712,-5.11676 -9.61536,-6.73077c-4.5827,-2.41064 -8.53711,-4.32062 -11.53845,-4.80768c-1.89825,-0.30804 -2.76788,-0.47449 -5.76929,-0.96155c-3.79645,-0.61609 -8.65381,0 -13.46149,0c-6.73077,0 -11.53845,0.96155 -16.34619,1.9231c-4.80768,0.96152 -8.8609,2.03741 -14.42307,3.84613c-4.08932,1.3298 -7.69229,2.88461 -9.61536,3.84616c-1.9231,0.96155 -3.66602,2.12192 -5.76926,3.84616c-2.68109,2.19797 -5.0112,3.57126 -7.69229,5.76923c-3.15482,2.58633 -4.3483,4.21225 -6.73077,6.73077c-3.30392,3.49258 -6.94495,4.5423 -10.5769,7.69229c-4.10913,3.56384 -6.46536,6.94495 -9.61539,10.57693c-1.78192,2.05457 -4.51205,4.02499 -5.76923,5.76923c-2.38528,3.30945 -4.37537,5.42422 -6.73077,9.61539c-2.53687,4.51404 -5.39081,8.2103 -6.73077,10.5769c-1.95334,3.44992 -3.41214,7.4711 -4.80768,11.53848c-1.59116,4.63751 -3.16211,8.52719 -4.80771,12.49997c-1.1636,2.8092 -1.24316,4.12781 -1.92307,4.80771c-0.67993,0.67993 -0.96158,2.88461 -1.9231,4.80768c-0.96155,1.9231 -0.96152,3.84616 -1.92307,6.73077c-0.96155,2.88461 -3.35217,5.59976 -3.84616,7.69232c-0.22092,0.93579 0,0 0,-0.96155c0,-0.96155 0.46207,-4.84494 0,-7.69232c-0.48706,-3.00137 -1.92307,-5.76923 -1.92307,-7.69229c0,-1.92307 0,-5.76923 0,-8.65384c0,-2.88461 0,-4.80771 0,-7.69232c0,-1.92307 0,-3.84613 0,-4.80768c0,-0.96155 0,-1.9231 0,-3.84616c0,-0.96155 0,-3.84616 0,-6.73077c0,-0.96152 0,-1.92307 0,1.9231c0,2.88461 0,6.73074 0,8.65384c0,0.96155 0,2.88461 0,4.80768c0,2.88461 0.96155,5.76923 0.96155,7.69232c0,2.88461 0.96152,3.84613 0.96152,6.73077c0,0.96152 -0.22092,1.94879 0,2.88461c0.49399,2.09253 0.96155,3.84613 0.96155,4.80768c0,0.96155 0.44116,3.55139 0.96155,4.80768c0.73596,1.7767 0,3.84616 0,4.80771c0,0.96155 -0.96155,2.88461 0,2.88461c0.96155,0 0.96152,-1.92307 1.92307,-2.88461c0.96155,-0.96155 0.66589,-2.10193 1.92307,-3.84616c0.7951,-1.10315 2.01721,-3.67734 3.84616,-4.80768c1.63586,-1.01102 1.36429,-1.36429 2.88461,-2.88461c1.52036,-1.52032 2.58899,-2.10196 3.84616,-3.84616c1.59021,-2.20627 3.84616,-3.84616 4.80768,-4.80771c1.92307,-1.9231 3.47214,-2.81543 5.76923,-4.80768c1.62427,-1.40872 1.9231,-2.88464 3.84616,-3.84616c1.9231,-0.96155 4.74438,-3.02335 6.73077,-3.84613c2.8092,-1.1636 4.83252,-1.61505 6.73077,-1.9231c3.00137,-0.48706 5.76923,-1.92307 8.65384,-1.92307l0.96155,0l0.96152,0" id="svg_63" fill-opacity="null" stroke-opacity="null" stroke-width="4.5" stroke="#fcfc0c" fill="none"/>
 </g>
</svg>