<svg width="185" height="115.99999999999999" xmlns="http://www.w3.org/2000/svg">
 <!-- Created with Method Draw - http://github.com/duopixel/Method-Draw/ -->
 <g>
  <title>Layer 1</title>
  <path d="m183.17859,45.32144c-0.71429,0 -0.92352,-0.2092 -1.42859,-0.71429c-0.50507,-0.5051 -0.12366,-1.32339 -0.71429,-2.14285c-0.9339,-1.29572 -0.24109,-3.07855 -1.42859,-5c-1.06213,-1.71857 -1.42853,-2.85715 -2.85712,-4.28574c-1.42859,-1.42856 -2.39014,-1.9325 -3.57141,-3.57141c-0.9339,-1.29572 -1.01349,-1.72777 -2.14288,-2.85715c-1.12939,-1.12938 -2.29401,-1.22437 -4.28571,-2.85715c-1.56238,-1.28085 -2.98999,-2.63753 -4.28571,-3.57143c-0.81946,-0.59064 -1.93866,-1.57979 -3.57141,-3.57143c-1.28088,-1.56241 -3.83716,-1.70366 -6.42859,-3.57143c-1.63898,-1.1813 -3.46625,-1.55222 -4.28571,-2.14285c-1.29572,-0.9339 -2.77045,-1.06676 -5,-1.42857c-0.70508,-0.11443 -2.14288,-0.71429 -2.85718,-0.71429c-0.71429,0 -2.14282,0 -3.57141,0c-1.42859,0 -2.14288,0 -2.85712,0c-0.71429,0 -1.42859,0 -2.85718,0c-2.14282,0 -2.85712,0 -4.28571,0c-1.42859,0 -2.87854,-0.34911 -5.71429,0c-2.92297,0.35985 -10.71429,0.71429 -16.42856,0.71429c-9.28571,0 -18.53809,0.35645 -24.28571,0.71428c-0.71292,0.04439 -1.42859,0 -2.14288,0c-1.42856,0 -2.30597,-0.10573 -4.28571,0.71429c-0.93326,0.38657 -2.14285,1.42856 -2.85715,1.42856c-0.71426,0 -0.75247,0.38608 -2.14285,0.71429c-1.55444,0.36696 -2.75195,0.83792 -3.57141,1.42857c-2.5914,1.86781 -8.62271,2.6366 -12.14288,3.57143c-2.18311,0.57976 -2.85712,1.42857 -3.57141,1.42857c-0.71429,0 -0.7525,0.38606 -2.14285,0.71428c-1.55447,0.36696 -1.4985,1.30318 -2.85715,2.14285c-1.21524,0.75105 -2.14285,0 -2.85715,0.71429c-0.71429,0.71428 -1.42856,0.71428 -2.14285,0.71428c-0.71429,0 -0.92349,0.20921 -1.42859,0.71429c-0.50507,0.50507 -0.9357,0.24107 -2.85712,1.42857c-0.85928,0.53107 -1.63779,0.2092 -2.14288,0.71428c-0.50507,0.50507 -1.1705,1.745 -2.85712,2.85715c-3.21127,2.11749 -6.22287,3.55829 -10,4.28571c-0.70142,0.13507 -0.7334,0.55017 -1.42859,0.71429c-1.55444,0.36697 -1.92325,1.56143 -2.85715,2.85715c-0.59064,0.81946 -1.20895,0.84714 -2.14285,2.14285c-0.59067,0.81949 -1.67584,2.64676 -2.85715,4.28571c-1.8678,2.5914 -2.54962,5.095 -3.57141,7.85715c-0.55414,1.49799 -2.14285,2.85715 -2.14285,4.28571c0,1.42859 -0.35446,2.077 -0.71429,5c-0.34909,2.83575 -0.71429,5.71429 -0.71429,8.57144c0,2.85715 -0.28152,5.72821 0,8.57141c0.35889,3.62445 2.12323,7.60538 2.85715,10.71429c0.65643,2.78073 1.27844,5.05603 2.14285,7.14285c0.61124,1.47562 1.84702,1.84702 2.85715,2.85715c0.5051,0.5051 0.71429,2.14285 2.14285,2.85715c1.42859,0.71429 3.49182,2.28149 7.14285,4.28571c1.40012,0.76859 3.28143,2.50928 5,3.57144c1.92142,1.18753 4.7482,2.12323 7.85715,2.85715c2.08554,0.49234 5,0.71426 7.14285,0.71426c1.42859,0 3.57144,0.71429 5.71429,0.71429c3.57144,0 6.42856,0 10,0c2.85715,0 5,0 8.57144,0c2.85712,0 5.73166,0.35193 9.28571,0c3.62442,-0.35889 6.3627,-1.06873 9.28571,-1.42856c0.70895,-0.08728 1.44998,-0.3652 4.28571,-0.71429c2.923,-0.35983 7.13681,-1.47244 12.14288,-2.14285c5.70779,-0.76437 11.39523,-1.07074 17.14285,-1.42859c2.13867,-0.13315 3.57141,-0.71426 5.71429,-0.71426c0.71429,0 0.60907,-0.83795 1.42853,-1.42859c1.29572,-0.93393 3.79291,-0.95535 5.71429,-2.14285c0.85931,-0.53107 2.57935,-0.66293 4.28571,-2.14285c1.2066,-1.04648 2.65302,-2.29404 4.28577,-4.28571c1.28082,-1.56238 3.06683,-2.6618 5.71423,-5.71429c2.34003,-2.69806 4.43347,-4.15192 5.71429,-5.71429c1.63275,-1.99167 2.3902,-2.64673 3.57147,-4.28571c0.93384,-1.29568 1.42853,-1.42856 2.85712,-2.85715c0.71429,-0.71429 0.71429,-1.42856 1.42859,-2.85715c0.71429,-1.42856 2.43988,-2.68649 3.57141,-5c0.99243,-2.02908 1.53168,-3.52435 2.14288,-5c0.86438,-2.08682 2.11078,-3.96365 2.85712,-6.42856c0.62097,-2.0509 1.06677,-3.48468 1.42859,-5.71429c0.11444,-0.70508 0.71429,-2.85715 0.71429,-5.71429c0,-1.42856 0,-3.57141 0,-5.71426c0,-1.42859 0.15009,-3.62747 -0.71429,-5.71429c-0.61121,-1.47562 -1.04199,-3.35245 -1.42859,-4.28571c-0.27338,-0.65991 0,-1.42859 -0.71429,-2.14285c-0.71429,-0.71428 -1.15045,-1.54236 -2.14282,-3.57144c-1.13147,-2.31352 -1.84705,-4.70413 -2.85718,-5.71428c-0.50507,-0.50508 -1.20892,-0.84717 -2.14282,-2.14287c-0.59064,-0.81949 -2.14288,-1.42856 -3.57147,-2.85713c-0.71429,-0.71429 -0.71429,-1.42857 -2.14282,-1.42857c-0.71429,0 -1.56146,-0.49467 -2.85718,-1.42857c-0.81952,-0.59065 -2.36426,-0.95534 -4.28571,-2.14285c-0.85931,-0.53107 -1.35919,-0.87444 -2.85712,-1.42857c-2.76215,-1.0218 -5.79071,-2.20068 -8.57147,-2.85715c-1.55444,-0.36696 -2.87103,-0.43274 -5.71423,-0.71428c-3.62445,-0.35889 -5.71429,-0.71429 -8.57147,-0.71429c-1.42853,0 -3.57141,0 -7.14282,0c-5,0 -12.15094,-0.35605 -20.00003,0c-7.88141,0.35751 -14.31247,0.99222 -17.85712,1.42857c-2.923,0.35983 -4.28574,0.71428 -5,0.71428c-0.71429,0 -1.35916,0.16016 -2.85715,0.71429c-2.76215,1.02179 -4.15985,1.06161 -5.71429,1.42857c-1.39035,0.32822 -1.35916,0.87444 -2.85715,1.42857c-2.76215,1.02177 -5,1.42854 -7.85715,2.85713c-1.42856,0.71429 -2.75195,1.55222 -3.57141,2.14287c-1.29572,0.93391 -2.85715,1.42856 -5,2.14285c-2.14285,0.71428 -3.70432,1.20897 -5,2.14285c-0.81949,0.59065 -1.57977,0.51009 -3.57144,2.14285c-0.78119,0.64043 -2.85715,1.42859 -4.28571,2.14287c-1.42859,0.71429 -2.14285,1.42856 -3.57144,2.85713c-1.42856,1.42856 -2.85715,2.85716 -4.28571,4.28572c-0.71429,0.71429 -1.42856,2.14285 -2.14285,2.85715c-0.71429,0.71429 -0.6091,1.55219 -1.42859,2.14285c-1.29568,0.9339 -2.29404,1.93869 -4.28571,3.57144c-0.78119,0.64041 -1.67584,2.64673 -2.85715,4.28571c-0.93387,1.29568 -1.55219,2.03766 -2.14285,2.85715c-0.9339,1.29568 -1.42856,2.14285 -2.14285,3.57141c-0.71429,1.42859 -1.34381,3.58945 -2.14285,7.14285c-0.64612,2.87332 -1.78397,4.94699 -2.14285,8.57144c-0.3519,3.55405 -0.71429,6.42856 -0.71429,9.28571c0,5 0,8.57144 0,10c0,0.71429 0.5502,1.44769 0.71429,2.14285c0.36694,1.55447 1.6347,3.47736 2.85715,6.42859c0.86438,2.08682 1.15521,2.19724 1.42856,2.85715c0.38657,0.93326 1.56143,1.20895 2.85715,2.14285c1.63895,1.18127 3.48679,2.27875 5.71429,3.57141c1.38141,0.80167 2.86633,2.02847 3.57141,2.14288c2.22958,0.36182 4.83566,1.82043 7.85715,2.85712c3.44504,1.18201 8.48471,2.49533 10.71429,2.85715c2.82025,0.45764 5,0.71429 7.14285,0.71429c1.42856,0 3.57141,0.71429 5,0.71429c1.42856,0 3.57141,0 5.71429,0c2.14285,0 4.28571,0 7.14285,0c2.85715,0 5.71426,0 7.14285,0c2.85715,0 5.58841,-0.34732 7.14285,-0.71429c2.08554,-0.49234 6.4494,-1.00626 10.71429,-1.42856c3.62442,-0.35889 5.71426,-1.42859 7.14285,-1.42859c1.42856,0 4.25949,-1.54315 7.14285,-2.14285c4.25378,-0.88474 7.88904,-1.25809 12.14288,-2.14285c2.88336,-0.5997 4.28571,-1.42859 6.42853,-2.14285c2.14288,-0.71429 4.34174,-0.56418 6.42859,-1.42859c2.95117,-1.22241 5.71429,-2.14288 7.85712,-2.85715c2.14288,-0.71429 2.14288,-1.42856 3.57147,-2.14285c1.42853,-0.71426 3.57141,-1.42856 5,-2.14285c2.85712,-1.42856 4.63348,-2.91467 6.42853,-4.28571c2.04669,-1.56326 2.47058,-1.92389 2.85718,-2.85715c0.27338,-0.65991 0.71429,-1.42853 1.42859,-2.14285c0.71423,-0.71429 0.95532,-2.36429 2.14282,-4.28571c1.5932,-2.57788 2.36487,-5.05731 2.85718,-7.14288c0.73389,-3.10889 1.25397,-5.01071 1.42853,-6.42856c0.35986,-2.923 1.42859,-5.71429 1.42859,-7.14285c0,-2.14285 0,-5 0,-7.14285c0,-2.14285 0.11444,-3.58066 0,-4.28574c-0.36182,-2.22961 -1.36975,-3.13345 -2.14288,-5c-0.82001,-1.97974 -0.71423,-4.28571 -1.42853,-5.71426c-0.71429,-1.42859 -1.51312,-2.52011 -2.14288,-2.85715c-2.27069,-1.21521 -2.14282,-3.57144 -3.57141,-5.71429c-1.42859,-2.14285 -3.43762,-3.71915 -5,-5c-1.9917,-1.63278 -3.57141,-2.85713 -4.28571,-3.57143c-1.42859,-1.42857 -2.63818,-3.18486 -3.57147,-3.57143c-0.65985,-0.27332 -0.76862,-0.44093 -1.42853,-0.71428c-1.86652,-0.77313 -2.91156,-1.86951 -3.57147,-2.14287c-0.93323,-0.38657 -1.85284,-1.0807 -3.57141,-2.14285c-1.92139,-1.18748 -4.34174,-0.56416 -6.42859,-1.42857c-1.47559,-0.61121 -2.68646,-1.01134 -5,-2.14285c-2.02905,-0.99239 -3.57141,-0.71431 -5.71423,-1.42857c-2.14288,-0.71429 -2.83136,-0.79706 -5,-1.42857c-2.82767,-0.82343 -5.74384,-0.60518 -8.57144,-1.42857c-2.1687,-0.63153 -2.85715,-0.71428 -4.28574,-0.71428c-2.14285,0 -5.71426,0 -7.85715,0c-1.42856,0 -3.57141,0 -5,0c-1.42856,0 -3.68018,0.54671 -5,0c-0.93326,-0.38658 -2.85712,-0.71429 -6.42856,-0.71429c-4.28571,0 -8.57144,-0.71428 -11.42856,-0.71428c-1.42859,0 -2.85715,0 -5,0c-2.14288,0 -3.57144,0 -5.71429,0c-2.14285,0 -4.28571,0 -6.42859,0c-3.57141,0 -7.85712,0 -15.71426,0c-7.85715,0 -15.71429,0 -20.71429,0l-4.28571,0l-0.71429,0" id="svg_16" fill-opacity="null" stroke-opacity="null" stroke-width="3.5" stroke="#ffff00" fill="none"/>
 </g>
</svg>