<svg width="175" height="111" xmlns="http://www.w3.org/2000/svg">
 <!-- Created with Method Draw - http://github.com/duopixel/Method-Draw/ -->
 <g>
  <title>background</title>
  <rect fill="none" id="canvas_background" height="113" width="177" y="-1" x="-1"/>
 </g>
 <g>
  <title>Layer 1</title>
  <path d="m172.61987,40.15338c0,-0.80646 -1.08563,-2.18185 -2.41937,-4.03229c-1.05438,-1.46292 -1.36499,-3.37582 -2.41937,-4.83871c-0.66681,-0.9252 -0.8064,-1.61292 -1.61285,-2.41937c-0.80646,-0.80646 -2.24988,-1.67618 -3.22583,-4.03229c-0.69006,-1.66599 -2.41937,-2.41934 -4.03229,-4.03226c-0.80646,-0.80646 -1.22595,-1.87393 -2.41937,-3.22583c-1.92432,-2.17986 -3.22583,-2.41936 -4.03229,-3.22581c-1.61292,-1.6129 -3.22577,-2.41936 -4.83868,-3.22581c-1.61292,-0.80646 -3.22583,-2.41936 -5.6452,-3.22581c-2.41937,-0.80646 -5.54724,-2.81732 -8.06458,-3.22581c-1.59204,-0.25835 -3.22577,-0.80646 -4.83868,-0.80646c-1.61292,0 -2.42981,-0.67728 -3.22583,-0.80646c-2.51733,-0.40851 -4.83875,-0.80646 -7.25812,-0.80646c-2.41931,0 -7.25806,0 -10.48389,0c-4.83875,0 -8.87097,0 -13.70972,0c-4.03229,0 -8.06458,0 -10.48395,0c-3.22577,0 -5.5708,0.40019 -8.87097,0.80646c-0.80042,0.09854 -2.41937,0.80646 -3.22583,0.80646c-1.61292,0 -3.96802,0.94191 -7.25806,2.41936c-3.96179,1.7791 -6.51636,1.86353 -8.87103,2.41937c-1.75507,0.41431 -3.08368,2.00505 -4.83875,2.41936c-1.5697,0.37056 -3.79242,1.24304 -6.4516,2.41937c-3.04083,1.34518 -8.15521,2.05408 -12.0968,3.2258c-4.16284,1.23752 -6.70166,1.8851 -8.87103,3.22583c-0.97015,0.59961 -2.41937,0.80646 -3.22583,1.61292c-1.61292,1.61292 -4.03229,3.2258 -5.64514,4.83871c-1.61292,1.61295 -3.22583,3.22583 -4.83875,5.6452c-1.61292,2.41934 -2.29614,4.87204 -3.22583,8.06454c-0.71301,2.44852 -2.01312,4.76434 -2.41937,8.06454c-0.29559,2.40121 0.47681,6.47519 0,11.29034c-0.40521,4.09213 -0.80646,7.25809 -0.80646,9.67746c0,2.41937 -0.30499,4.0614 0,5.64517c0.82129,4.26456 4.83875,8.06458 6.45166,11.29037c0.80646,1.61292 1.36499,2.5694 2.41937,4.03229c2.00061,2.77563 5.70386,5.54993 9.67743,8.06454c4.91412,3.10977 7.10138,5.20032 10.48395,6.45163c3.11853,1.15363 5.64514,1.61292 8.87097,2.41937c3.22583,0.80646 5.6452,0.80646 7.25812,0.80646c2.41931,0 4.76434,0.40018 8.06451,0.80643c4.00208,0.49265 8.87103,0 13.70972,0c5.6452,0 8.87103,0 10.48395,0c2.41931,0 4.8595,0.25836 6.4516,0c2.51733,-0.40848 5.50305,-1.19858 7.25812,-1.61288c3.92444,-0.92642 6.48285,-0.41891 8.87097,-0.80646c2.51733,-0.40851 5.67853,-0.68326 8.87103,-1.61292c2.44855,-0.71301 4.80951,-1.70636 7.25806,-2.41937c3.1925,-0.92966 5.70844,-1.44345 8.06458,-2.41937c1.66602,-0.69006 4.03229,-1.61288 7.25806,-4.03226c3.22583,-2.41937 5.79523,-2.97791 7.25812,-4.03229c0.92523,-0.66684 1.44922,-1.81973 2.41937,-2.41934c2.16937,-1.34073 4.03229,-2.41937 5.6452,-4.83875c1.61285,-2.41934 2.75708,-4.37006 4.03223,-5.64517c1.27515,-1.27512 1.04266,-2.65558 1.61292,-3.22583c0.57025,-0.57025 1.22015,-1.28546 2.41937,-3.2258c1.34076,-2.16937 1.19861,-3.89014 1.61292,-5.6452c0.1853,-0.78485 0,-2.41934 0,-4.83871c0,-3.22583 0,-5.64517 0,-8.06454c0,-2.41937 0,-4.83871 0,-7.25809c0,-3.22583 0,-6.45163 0,-8.06454c0,-1.61292 -0.80646,-2.41937 -1.61292,-4.03229c-0.80646,-1.61292 -2.41937,-3.2258 -3.22583,-4.83871c-1.61292,-3.22583 -3.89069,-3.30481 -4.83868,-4.83875c-0.84796,-1.37201 -0.80646,-1.61288 -1.61292,-2.41934c-2.41937,-2.41937 -4.83875,-4.03229 -6.45166,-4.83875c-1.61292,-0.80646 -2.54218,-0.9957 -4.03229,-1.61292c-1.05365,-0.43643 -2.48138,-1.39633 -5.64514,-2.41934c-4.13226,-1.33618 -7.28833,-1.9267 -11.29041,-2.41937c-3.30017,-0.40627 -6.4516,-0.80646 -9.67743,-1.61292c-3.22583,-0.80644 -6.43341,-0.88341 -9.67749,-1.6129c-4.0119,-0.90215 -8.10614,-0.28973 -11.29034,-0.80646c-2.51733,-0.40851 -4.03229,-0.80646 -5.6452,-0.80646c-1.61292,0 -4.03223,0 -7.25806,0c-3.22583,0 -5.66553,-0.0957 -9.67749,0.80646c-3.24402,0.72948 -7.28278,1.54219 -9.67743,2.41936c-4.07794,1.49376 -5.56683,2.60017 -7.25812,3.22583c-3.11853,1.15363 -5.97748,1.58752 -8.87097,3.2258c-2.97742,1.68576 -4.83875,4.03229 -5.6452,4.83875c-0.80646,0.80646 -1.18896,0.92691 -1.61292,1.61292c-0.94806,1.53397 -2.41931,1.61292 -4.03223,3.2258c-1.61292,1.61292 -2.41937,3.22583 -3.22583,4.03229c-0.80646,0.80646 -2.03241,2.68039 -3.22583,4.03226c-1.92438,2.17984 -3.505,3.79477 -4.83875,5.6452c-2.10883,2.92578 -3.45856,6.34543 -4.83868,9.67746c-0.97589,2.35611 -2.00507,5.50302 -2.41937,7.25809c-0.37054,1.56973 -1.2077,5.58533 -1.61292,9.67746c-0.47681,4.81516 -1.54761,8.15085 -0.80646,11.29034c0.82861,3.5101 3.37927,5.54965 4.83875,8.06454c0.90515,1.55969 2.19269,3.47601 4.83868,5.6452c2.24866,1.84344 5.8302,3.49353 8.87103,4.83871c2.65918,1.17633 5.64514,3.22583 8.87097,4.83871c3.22583,1.61292 7.99023,3.62601 11.29041,4.03229c3.2016,0.39413 3.98682,0.15189 6.4516,0.80646c3.97437,1.05545 8.06458,2.41937 12.0968,2.41937c4.83875,0 9.67749,0 15.32269,0c5.64514,0 12.20764,-0.17465 18.5484,-1.61292c4.97412,-1.12827 8.87103,-2.41937 12.09686,-3.22583c3.22583,-0.80646 6.4516,-2.41937 9.67743,-3.22583c3.22583,-0.80643 6.5589,-2.07214 9.67749,-3.2258c1.69122,-0.62564 2.30054,-0.94604 3.22577,-1.61292c1.46289,-1.05441 4.03229,-2.41937 6.45166,-4.03226c2.41937,-1.61292 3.5636,-2.75717 4.83875,-4.03229c1.27515,-1.27512 2.50275,-2.34384 3.22583,-3.22583c1.84338,-2.24863 2.81146,-4.69656 3.22577,-6.45163c0.55585,-2.35464 1.2254,-4.86996 1.61292,-7.25809c0.40851,-2.5173 0.8999,-4.00308 1.61292,-6.45163c0.92969,-3.1925 1.61292,-6.45163 1.61292,-8.06454c0,-1.61292 0,-2.41937 0,-4.03229c0,-0.80646 0.39795,-1.51498 0.80646,-4.03226c0.51672,-3.18417 0,-6.45166 0,-8.871c0,-2.41937 0,-4.03229 0,-6.45163c0,-1.61292 -0.74847,-4.52505 -2.41937,-6.45166c-1.18152,-1.3623 -2.83887,-2.68036 -4.03229,-4.03226c-1.92432,-2.17984 -2.98822,-3.50504 -4.83868,-4.83875c-2.92584,-2.1088 -4.6012,-3.50499 -6.45166,-4.83871c-1.46289,-1.0544 -3.15027,-1.6963 -4.03229,-2.41937c-2.24866,-1.84346 -4.90192,-2.24988 -7.25806,-3.22581c-1.66602,-0.69009 -3.19666,-1.70634 -5.6452,-2.41936c-3.1925,-0.92966 -6.45166,-1.61292 -8.06451,-1.61292c-3.22583,0 -7.25812,0 -11.29041,0c-4.03229,0 -8.03778,0.14777 -12.0968,0.80646c-6.41791,1.04149 -11.29034,1.61292 -14.51617,2.41936c-3.22583,0.80646 -5.67853,0.68326 -8.87103,1.61292c-2.44855,0.71301 -4.74072,2.01086 -7.25806,2.41936c-1.5921,0.25836 -4.90198,0.63698 -7.25812,1.61292c-1.66602,0.69009 -2.97858,1.17647 -4.03229,1.61292c-1.49011,0.61722 -2.52313,0.10536 -4.83868,0.80646c-2.78296,0.84261 -4.90198,2.24988 -7.25812,3.2258c-1.66602,0.69009 -3.22583,0.80646 -4.83875,1.61292c-1.61285,0.80646 -4.15503,1.80212 -5.64514,2.41937c-2.10736,0.87289 -3.39655,2.18881 -5.6452,4.03226c-1.76398,1.44614 -3.88123,4.19907 -5.6452,5.6452c-2.2486,1.84344 -3.58905,3.58911 -5.64514,5.64517c-2.05609,2.05606 -2.97791,3.37582 -4.03229,4.83871c-1.33374,1.85043 -1.86353,3.29056 -2.41937,5.6452c-0.41431,1.75507 -2.01312,4.76434 -2.41937,8.06454c-0.29559,2.40125 -0.25836,4.85953 0,6.45163c0.40851,2.5173 2.0495,4.59897 3.22583,7.25809c1.34521,3.04086 2.41937,5.6452 4.03229,8.06454c1.61292,2.41937 3.0033,5.8248 5.6452,8.871c2.24176,2.58478 5.64514,5.6452 8.06451,7.25809c2.41937,1.61292 3.91351,2.55896 4.83875,3.22583c1.46289,1.05441 2.86224,2.38321 5.64514,3.22583c2.31555,0.70111 4.83875,1.61288 6.45166,1.61288c2.41937,0 3.22583,0.80646 5.6452,0.80646c3.22583,0 6.4516,0 8.06451,0c2.41937,0 3.12787,0.39795 5.6452,0.80646c1.5921,0.25836 2.41937,0 3.22583,0c1.61292,0 4.09692,0.25061 6.4516,0.80646c1.75507,0.41431 3.22583,0.80646 4.03229,0.80646c2.41937,0 4.83875,0 7.25812,0c0.80646,0 1.61292,0 2.41931,0c1.61292,0 4.83875,0 6.45166,0c2.41937,0 4.03229,0 7.25812,0c2.41937,0 4.83868,0 6.4516,0c1.61292,0 3.22583,0 6.45166,0c2.41937,0 3.93433,-0.39795 6.45166,-0.80646c1.59204,-0.25836 4.09692,-0.25061 6.4516,-0.80646c1.75507,-0.41431 2.36627,-0.92282 4.03229,-1.61292c2.35614,-0.97592 5.31775,-2.83307 7.25806,-4.03226c2.16937,-1.34076 4.74078,-3.62378 7.25812,-4.03229c0.79602,-0.12918 0.76495,-1.04733 1.61292,-2.41934c0.94806,-1.53397 2.81152,-1.47076 3.22583,-3.22583c0.1853,-0.78488 0,-1.61292 0.80646,-1.61292c0.80646,0 1.18896,-1.73337 1.61292,-2.41934c0.94806,-1.53397 2.27777,-0.88544 3.22577,-2.41937c0.42395,-0.686 0.80646,-1.61292 1.61292,-2.41937c1.61292,-1.61292 3.22583,-4.03226 4.83875,-5.64517c0.80646,-0.80646 1.61292,-2.41937 2.41937,-3.22583c0.80646,-0.80646 1.17645,-2.17215 1.61292,-3.2258c0.30865,-0.74506 0.37,-2.17215 0.80646,-3.22583c0.30859,-0.74506 0,-1.61292 0,-2.41937c0,-0.80646 0,-1.61292 0,-2.41937c0,-0.80643 0,-2.41934 0,-3.2258c0,-0.80646 0,-1.61292 0,-2.41937c0,-2.41937 0,-4.03226 0,-5.64517c0,-0.80646 0,-1.61292 0,-4.03229c0,-0.80646 0,-2.41934 0,-3.2258c0,-0.80646 0,-1.61292 0,-2.41937c0,-0.80646 0,-1.61292 0,-3.22583c0,-0.80646 0,-1.61288 0,-2.41934c0,-0.80646 0,-2.41937 0,-3.22583c0,-1.61292 -0.80646,-1.61292 -0.80646,-2.41937c0,-0.80646 0,-2.41934 0,-3.2258c0,-0.80646 0,-1.61292 0,-2.41937c0,-0.80646 -1.17645,-0.55923 -1.61292,-1.61292c-0.61725,-1.49014 0.57025,-2.65558 0,-3.22581c-0.57025,-0.57025 -0.80646,-0.80646 -0.80646,-1.6129c0,-0.80646 -0.80646,-1.61292 -0.80646,-2.41937c0,-0.80646 0.57025,-1.84912 0,-2.41936c-0.57025,-0.57025 -0.80646,-0.80646 -0.80646,-1.61292c0,-0.80646 0,-1.61292 -0.80646,-1.61292l0,-0.80644l0,-0.80646" id="svg_49" fill-opacity="null" stroke-opacity="null" stroke-width="4.5" stroke="#fcfc0c" fill="none"/>
 </g>
</svg>