<svg width="485" height="519" viewBox="0 0 485 519" fill="none" xmlns="http://www.w3.org/2000/svg">
<g id="diagram">
<path id="hop" d="M8.94775 517.845C8.94775 517.845 310.759 265.957 484.584 517.845Z" fill="#F2F2F2"/>
<g id="bars">
<g id="bar1">
<path id="Vector" d="M44.0296 374.881H11.081C5.14018 374.881 0.324219 379.697 0.324219 385.638V507.542C0.324219 513.482 5.14018 518.298 11.081 518.298H44.0296C49.9704 518.298 54.7864 513.482 54.7864 507.542V385.638C54.7864 379.697 49.9704 374.881 44.0296 374.881Z" fill="white"/>
<path id="Vector_2" d="M51.2913 367.62H18.3427C12.4019 367.62 7.58594 372.436 7.58594 378.376V500.28C7.58594 506.221 12.4019 511.037 18.3427 511.037H51.2913C57.2321 511.037 62.0481 506.221 62.0481 500.28V378.376C62.0481 372.436 57.2321 367.62 51.2913 367.62Z" stroke="#3F3D56" stroke-width="0.907703" stroke-miterlimit="10"/>
</g>
<g id="bar2">
<path id="Vector_3" d="M147.508 288.649H114.559C108.619 288.649 103.803 293.465 103.803 299.406V507.541C103.803 513.482 108.619 518.298 114.559 518.298H147.508C153.449 518.298 158.265 513.482 158.265 507.541V299.406C158.265 293.465 153.449 288.649 147.508 288.649Z" fill="white"/>
<path id="Vector_4" d="M154.77 281.388H121.821C115.88 281.388 111.064 286.204 111.064 292.145V500.28C111.064 506.221 115.88 511.037 121.821 511.037H154.77C160.711 511.037 165.527 506.221 165.527 500.28V292.145C165.527 286.204 160.711 281.388 154.77 281.388Z" stroke="#3F3D56" stroke-width="0.907703" stroke-miterlimit="10"/>
</g>
<g id="bar3">
<path id="Vector_5" d="M250.987 228.741H218.038C212.097 228.741 207.281 233.557 207.281 239.498V507.542C207.281 513.482 212.097 518.298 218.038 518.298H250.987C256.927 518.298 261.743 513.482 261.743 507.542V239.498C261.743 233.557 256.927 228.741 250.987 228.741Z" fill="white"/>
<path id="Vector_6" d="M258.248 221.479H225.3C219.359 221.479 214.543 226.295 214.543 232.236V500.28C214.543 506.221 219.359 511.037 225.3 511.037H258.248C264.189 511.037 269.005 506.221 269.005 500.28V232.236C269.005 226.295 264.189 221.479 258.248 221.479Z" stroke="#3F3D56" stroke-width="0.907703" stroke-miterlimit="10"/>
</g>
<g id="bar4">
<path id="Vector_7" d="M354.464 171.556H321.516C315.575 171.556 310.759 176.372 310.759 182.313V507.542C310.759 513.482 315.575 518.298 321.516 518.298H354.464C360.405 518.298 365.221 513.482 365.221 507.542V182.313C365.221 176.372 360.405 171.556 354.464 171.556Z" fill="white"/>
<path id="Vector_8" d="M361.726 164.294H328.777C322.836 164.294 318.021 169.11 318.021 175.051V500.28C318.021 506.221 322.836 511.037 328.777 511.037H361.726C367.667 511.037 372.483 506.221 372.483 500.28V175.051C372.483 169.11 367.667 164.294 361.726 164.294Z" stroke="#3F3D56" stroke-width="0.907703" stroke-miterlimit="10"/>
</g>
<g id="bar5">
<path id="Vector_9" d="M457.943 71.7085H424.994C419.053 71.7085 414.237 76.5245 414.237 82.4652V507.542C414.237 513.482 419.053 518.298 424.994 518.298H457.943C463.884 518.298 468.699 513.482 468.699 507.542V82.4652C468.699 76.5245 463.884 71.7085 457.943 71.7085Z" fill="white"/>
<path id="Vector_10" d="M465.204 64.4469H432.256C426.315 64.4469 421.499 69.2629 421.499 75.2036V500.28C421.499 506.221 426.315 511.037 432.256 511.037H465.204C471.145 511.037 475.961 506.221 475.961 500.28V75.2036C475.961 69.2629 471.145 64.4469 465.204 64.4469Z" stroke="#3F3D56" stroke-width="0.907703" stroke-miterlimit="10"/>
</g>
</g>
<g id="circles">
<path id="circleLine" d="M34.3633 312.704L137.841 226.472L242.227 167.471L345.705 110.286L449.183 10.4386" stroke="white" stroke-width="0.907703" stroke-miterlimit="10"/>
<g id="circle1">
<path id="Vector_11" d="M31.64 327.227C37.1544 327.227 41.6247 322.756 41.6247 317.242C41.6247 311.728 37.1544 307.257 31.64 307.257C26.1256 307.257 21.6553 311.728 21.6553 317.242C21.6553 322.756 26.1256 327.227 31.64 327.227Z" fill="#F2F2F2"/>
<path id="Vector_12" d="M34.3636 322.688C39.878 322.688 44.3484 318.218 44.3484 312.704C44.3484 307.189 39.878 302.719 34.3636 302.719C28.8492 302.719 24.3789 307.189 24.3789 312.704C24.3789 318.218 28.8492 322.688 34.3636 322.688Z" stroke="#3F3D56" stroke-width="0.907703" stroke-miterlimit="10"/>
</g>
<g id="circle2">
<path id="Vector_13" d="M135.119 240.995C140.633 240.995 145.103 236.525 145.103 231.01C145.103 225.496 140.633 221.026 135.119 221.026C129.604 221.026 125.134 225.496 125.134 231.01C125.134 236.525 129.604 240.995 135.119 240.995Z" fill="#F2F2F2"/>
<path id="Vector_14" d="M137.841 236.457C143.356 236.457 147.826 231.986 147.826 226.472C147.826 220.957 143.356 216.487 137.841 216.487C132.327 216.487 127.856 220.957 127.856 226.472C127.856 231.986 132.327 236.457 137.841 236.457Z" stroke="#3F3D56" stroke-width="0.907703" stroke-miterlimit="10"/>
</g>
<g id="circle3">
<path id="Vector_15" d="M239.504 181.994C245.019 181.994 249.489 177.524 249.489 172.01C249.489 166.495 245.019 162.025 239.504 162.025C233.99 162.025 229.52 166.495 229.52 172.01C229.52 177.524 233.99 181.994 239.504 181.994Z" fill="#F2F2F2"/>
<path id="Vector_16" d="M242.227 177.456C247.741 177.456 252.212 172.986 252.212 167.471C252.212 161.957 247.741 157.486 242.227 157.486C236.713 157.486 232.242 161.957 232.242 167.471C232.242 172.986 236.713 177.456 242.227 177.456Z" stroke="#3F3D56" stroke-width="0.907703" stroke-miterlimit="10"/>
</g>
<g id="circle4">
<path id="Vector_17" d="M342.983 124.809C348.497 124.809 352.968 120.339 352.968 114.824C352.968 109.31 348.497 104.84 342.983 104.84C337.468 104.84 332.998 109.31 332.998 114.824C332.998 120.339 337.468 124.809 342.983 124.809Z" fill="#F2F2F2"/>
<path id="Vector_18" d="M345.705 120.271C351.22 120.271 355.69 115.8 355.69 110.286C355.69 104.771 351.22 100.301 345.705 100.301C340.191 100.301 335.721 104.771 335.721 110.286C335.721 115.8 340.191 120.271 345.705 120.271Z" stroke="#3F3D56" stroke-width="0.907703" stroke-miterlimit="10"/>
</g>
<g id="circle5">
<path id="Vector_19" d="M446.46 24.9618C451.975 24.9618 456.445 20.4915 456.445 14.9771C456.445 9.46269 451.975 4.99237 446.46 4.99237C440.946 4.99237 436.476 9.46269 436.476 14.9771C436.476 20.4915 440.946 24.9618 446.46 24.9618Z" fill="#F2F2F2"/>
<path id="Vector_20" d="M449.184 20.4233C454.698 20.4233 459.169 15.953 459.169 10.4386C459.169 4.92417 454.698 0.453857 449.184 0.453857C443.67 0.453857 439.199 4.92417 439.199 10.4386C439.199 15.953 443.67 20.4233 449.184 20.4233Z" stroke="#3F3D56" stroke-width="0.907703" stroke-miterlimit="10"/>
</g>
</g>
</g>
</svg>
