<svg width="853" height="669" viewBox="0 0 853 669" fill="none" xmlns="http://www.w3.org/2000/svg">
<g id="diagram">
<path id="hop" d="M152.948 517.845C152.948 517.845 454.759 265.957 628.584 517.845H152.948Z" fill="#F2F2F2"/>
<g id="platform">
<path id="Vector" d="M689.786 668.75C766.988 668.75 829.572 658.997 829.572 646.965C829.572 634.934 766.988 625.18 689.786 625.18C612.584 625.18 550 634.934 550 646.965C550 658.997 612.584 668.75 689.786 668.75Z" fill="#F2F2F2"/>
<path id="Vector_2" d="M712.479 660.581C789.68 660.581 852.265 650.827 852.265 638.796C852.265 626.764 789.68 617.011 712.479 617.011C635.277 617.011 572.692 626.764 572.692 638.796C572.692 650.827 635.277 660.581 712.479 660.581Z" stroke="#3F3D56" stroke-width="0.907703" stroke-miterlimit="10"/>
</g>
<g id="bars">
<g id="bar1">
<path id="Vector_3" d="M188.03 374.881H155.081C149.14 374.881 144.324 379.697 144.324 385.638V507.542C144.324 513.482 149.14 518.298 155.081 518.298H188.03C193.97 518.298 198.786 513.482 198.786 507.542V385.638C198.786 379.697 193.97 374.881 188.03 374.881Z" fill="white"/>
<path id="Vector_4" d="M195.291 367.62H162.343C156.402 367.62 151.586 372.436 151.586 378.376V500.28C151.586 506.221 156.402 511.037 162.343 511.037H195.291C201.232 511.037 206.048 506.221 206.048 500.28V378.376C206.048 372.436 201.232 367.62 195.291 367.62Z" stroke="#3F3D56" stroke-width="0.907703" stroke-miterlimit="10"/>
</g>
<g id="bar2">
<path id="Vector_5" d="M291.508 288.649H258.559C252.619 288.649 247.803 293.465 247.803 299.406V507.541C247.803 513.482 252.619 518.298 258.559 518.298H291.508C297.449 518.298 302.265 513.482 302.265 507.541V299.406C302.265 293.465 297.449 288.649 291.508 288.649Z" fill="white"/>
<path id="Vector_6" d="M298.77 281.388H265.821C259.88 281.388 255.064 286.204 255.064 292.145V500.28C255.064 506.221 259.88 511.037 265.821 511.037H298.77C304.711 511.037 309.527 506.221 309.527 500.28V292.145C309.527 286.204 304.711 281.388 298.77 281.388Z" stroke="#3F3D56" stroke-width="0.907703" stroke-miterlimit="10"/>
</g>
<g id="bar3">
<path id="Vector_7" d="M394.987 228.741H362.038C356.097 228.741 351.281 233.557 351.281 239.498V507.542C351.281 513.482 356.097 518.298 362.038 518.298H394.987C400.927 518.298 405.743 513.482 405.743 507.542V239.498C405.743 233.557 400.927 228.741 394.987 228.741Z" fill="white"/>
<path id="Vector_8" d="M402.248 221.479H369.3C363.359 221.479 358.543 226.295 358.543 232.236V500.28C358.543 506.221 363.359 511.037 369.3 511.037H402.248C408.189 511.037 413.005 506.221 413.005 500.28V232.236C413.005 226.295 408.189 221.479 402.248 221.479Z" stroke="#3F3D56" stroke-width="0.907703" stroke-miterlimit="10"/>
</g>
<g id="bar4">
<path id="Vector_9" d="M498.464 171.556H465.516C459.575 171.556 454.759 176.372 454.759 182.313V507.542C454.759 513.482 459.575 518.298 465.516 518.298H498.464C504.405 518.298 509.221 513.482 509.221 507.542V182.313C509.221 176.372 504.405 171.556 498.464 171.556Z" fill="white"/>
<path id="Vector_10" d="M505.726 164.294H472.777C466.836 164.294 462.021 169.11 462.021 175.051V500.28C462.021 506.221 466.836 511.037 472.777 511.037H505.726C511.667 511.037 516.483 506.221 516.483 500.28V175.051C516.483 169.11 511.667 164.294 505.726 164.294Z" stroke="#3F3D56" stroke-width="0.907703" stroke-miterlimit="10"/>
</g>
<g id="bar5">
<path id="Vector_11" d="M601.943 71.7085H568.994C563.053 71.7085 558.237 76.5245 558.237 82.4652V507.542C558.237 513.482 563.053 518.298 568.994 518.298H601.943C607.884 518.298 612.699 513.482 612.699 507.542V82.4652C612.699 76.5245 607.884 71.7085 601.943 71.7085Z" fill="white"/>
<path id="Vector_12" d="M609.204 64.4469H576.256C570.315 64.4469 565.499 69.2629 565.499 75.2036V500.28C565.499 506.221 570.315 511.037 576.256 511.037H609.204C615.145 511.037 619.961 506.221 619.961 500.28V75.2036C619.961 69.2629 615.145 64.4469 609.204 64.4469Z" stroke="#3F3D56" stroke-width="0.907703" stroke-miterlimit="10"/>
</g>
</g>
<g id="person">
<path id="Vector_13" d="M784.123 429.622C784.123 429.622 792.665 460.374 781.845 464.93C771.025 469.486 774.442 430.761 774.442 430.761L784.123 429.622Z" fill="#FFCFCF"/>
<path id="Vector_14" d="M706.673 626.663C706.673 626.663 698.7 626.094 695.853 627.802C695 628.301 694.05 628.61 693.067 628.708C692.084 628.806 691.092 628.692 690.158 628.372C690.158 628.372 677.629 627.233 682.185 633.497C686.741 639.762 691.297 642.039 691.297 644.887C691.297 647.734 710.09 647.734 710.659 644.887C711.229 642.039 711.798 627.233 710.659 626.663C709.52 626.094 706.673 626.663 706.673 626.663Z" fill="#575A89"/>
<path id="Vector_15" d="M727.744 626.663C727.744 626.663 735.716 626.094 738.564 627.802C739.416 628.301 740.366 628.61 741.349 628.708C742.332 628.806 743.324 628.692 744.259 628.372C744.259 628.372 756.787 627.233 752.231 633.497C747.676 639.762 743.12 642.039 743.12 644.887C743.12 647.734 724.327 647.734 723.757 644.887C723.188 642.039 722.618 627.233 723.757 626.663C724.896 626.094 727.744 626.663 727.744 626.663Z" fill="#575A89"/>
<path id="Vector_16" d="M683.324 423.358C683.324 423.358 679.338 513.336 681.616 517.892C683.894 522.448 691.866 599.328 690.727 603.884C689.588 608.44 683.894 627.233 690.727 630.08C697.561 632.928 712.368 630.08 712.368 630.08C712.368 630.08 716.354 607.301 714.646 595.342C712.937 583.383 712.368 533.268 712.368 533.268L723.757 480.876L727.744 530.421C727.744 530.421 728.883 598.189 720.91 611.857C712.937 625.524 723.757 631.219 723.757 631.219C723.757 631.219 745.398 634.067 747.676 633.497C749.954 632.928 745.967 610.718 747.676 601.037C749.384 591.355 753.371 537.254 756.788 524.156C760.204 511.058 779.567 438.164 765.33 423.358C751.093 408.551 683.324 423.358 683.324 423.358Z" fill="#3F3D56"/>
<path id="Vector_17" d="M724.896 241.692C735.904 241.692 744.828 232.769 744.828 221.76C744.828 210.752 735.904 201.828 724.896 201.828C713.888 201.828 704.964 210.752 704.964 221.76C704.964 232.769 713.888 241.692 724.896 241.692Z" fill="#FFCFCF"/>
<path id="Vector_18" d="M710.09 230.872C710.09 230.872 713.507 258.207 711.798 258.777C710.09 259.346 741.981 258.777 741.981 258.777C741.981 258.777 735.717 242.262 741.981 229.164L710.09 230.872Z" fill="#FFCFCF"/>
<path id="Vector_19" d="M710.09 253.082C710.09 253.082 723.97 239.414 740.379 253.082L741.441 257.156L732.869 257.068H710.09V253.082Z" fill="#F2F2F2"/>
<path id="Vector_20" d="M777.858 427.914C776.542 428.175 773.319 428.711 769.116 429.349C755.124 431.461 730.329 434.662 729.452 432.469C728.313 429.622 724.327 419.371 721.479 423.927C718.632 428.483 720.34 432.469 708.381 433.039C700.243 433.426 688.415 432.23 681.866 430.351C678.791 429.468 676.877 428.437 677.059 427.344C677.629 423.927 683.893 359.006 683.893 352.742C683.893 346.477 686.171 316.295 686.171 316.295L669.804 284.09L668.517 281.556C668.517 281.556 670.226 275.292 675.351 274.153C680.476 273.014 704.964 258.777 704.964 258.777C704.964 258.777 710.089 250.804 719.771 251.374C729.452 251.943 731.73 247.957 744.828 258.777C744.828 258.777 760.773 265.611 766.468 269.028C772.163 272.444 778.427 272.444 778.997 278.139C779.111 279.284 778.49 281.488 777.425 284.273C773.524 294.478 763.666 312.536 762.123 315.349C761.986 315.594 761.912 315.725 761.912 315.725C761.912 315.725 761.616 325.965 761.929 337.952V337.981C762.237 349.479 763.103 362.582 765.329 369.826C769.885 384.633 783.553 426.775 777.858 427.914Z" fill="#575A89"/>
<path id="Vector_21" d="M750.771 213.578C750.373 211.764 749.606 210.051 748.519 208.545C748.085 204.38 746.696 200.371 744.459 196.831C743.582 195.172 742.338 193.736 740.821 192.632C739.084 191.632 737.102 191.138 735.098 191.206C734.735 191.199 734.081 191.31 733.493 191.336C733.116 191.22 732.737 191.116 732.356 191.018C732.133 190.524 731.693 189.082 731.57 189.18L729.909 190.499C729.207 190.377 728.501 190.282 727.793 190.207C727.535 189.471 727.277 188.736 727.019 188C726.601 188.658 726.234 189.347 725.922 190.062C725.217 190.028 724.511 190.015 723.805 190.026L722.394 188.67C722.31 189.048 722.119 189.394 721.842 189.665C721.566 189.935 721.216 190.12 720.836 190.195C720.187 190.262 719.54 190.349 718.895 190.453C718.843 190.452 718.79 190.453 718.738 190.451C715.262 190.365 711.522 190.209 708.615 192.117C707.255 193.051 706.148 194.308 705.393 195.774C705.037 196.016 704.68 196.256 704.334 196.513C703.169 197.308 702.158 198.31 701.353 199.469C700.767 200.468 700.323 201.544 700.033 202.666C698.924 206.041 698.41 209.583 698.515 213.135C698.634 216.71 699.983 220.135 702.334 222.831C703.825 224.433 705.72 225.616 707.213 227.216C710.287 230.51 710.863 235.104 713.492 238.59C716.273 242.276 721.348 244.702 725.805 245.398C728.485 245.802 731.218 245.672 733.848 245.016C736.477 244.36 738.951 243.191 741.128 241.576C742.172 240.849 743.059 239.919 743.736 238.841C745.284 236.165 744.628 232.802 745.202 229.765C746.279 224.072 751.712 219.295 750.771 213.578Z" fill="#3F3D56"/>
<path id="Vector_22" d="M674.782 431.33C674.782 431.33 683.324 462.083 672.504 466.638C661.683 471.194 665.1 432.469 665.1 432.469L674.782 431.33Z" fill="#FFCFCF"/>
<path id="Vector_23" opacity="0.1" d="M685.027 361.546C685.027 361.546 681.291 416.991 681.866 430.351C678.791 429.468 676.877 428.437 677.059 427.344C677.629 423.927 683.893 359.006 683.893 352.742C683.893 346.477 686.171 316.295 686.171 316.295L669.804 284.09C670.066 282.496 670.226 281.556 670.226 281.556L678.483 298.925L690.158 302.058L685.027 361.546Z" fill="black"/>
<path id="Vector_24" d="M672.504 278.139L668.517 281.556C668.517 281.556 663.392 311.739 663.962 319.142C664.531 326.545 652.002 438.734 661.684 438.734C671.365 438.734 682.185 437.025 680.477 433.039C678.768 429.052 683.321 361.546 683.321 361.546L688.449 302.058L672.504 278.139Z" fill="#575A89"/>
<path id="Vector_25" opacity="0.1" d="M777.425 284.273C773.524 294.478 763.666 312.536 762.123 315.349C762.169 308.066 762.197 302.912 762.197 302.912L774.156 278.424L776.719 276.431C776.719 276.431 776.992 279.443 777.425 284.273Z" fill="black"/>
<path id="Vector_26" opacity="0.1" d="M777.858 427.913C776.543 428.175 773.32 428.711 769.117 429.349C766.936 413.221 761.104 366.842 761.474 362.474C761.657 360.321 761.81 349.684 761.93 337.981C762.238 349.478 763.103 362.582 765.33 369.826C769.886 384.633 783.553 426.774 777.858 427.913Z" fill="black"/>
<path id="Vector_27" d="M770.455 274.153L778.997 276.431C778.997 276.431 784.692 339.643 785.262 350.464C785.831 361.284 792.665 427.913 791.526 430.761C790.387 433.608 772.733 437.595 772.163 434.747C771.594 431.9 763.315 367.649 763.753 362.473C764.191 357.297 761.343 303.766 761.343 303.766L770.455 274.153Z" fill="#575A89"/>
</g>
<g id="circles">
<path id="circleLine" d="M178.363 312.704L281.841 226.472L386.227 167.471L489.705 110.286L593.183 10.4386" stroke="white" stroke-width="0.907703" stroke-miterlimit="10"/>
<g id="circle1">
<path id="Vector_28" d="M175.64 327.227C181.154 327.227 185.625 322.756 185.625 317.242C185.625 311.728 181.154 307.257 175.64 307.257C170.126 307.257 165.655 311.728 165.655 317.242C165.655 322.756 170.126 327.227 175.64 327.227Z" fill="#F2F2F2"/>
<path id="Vector_29" d="M178.364 322.688C183.878 322.688 188.348 318.218 188.348 312.704C188.348 307.189 183.878 302.719 178.364 302.719C172.849 302.719 168.379 307.189 168.379 312.704C168.379 318.218 172.849 322.688 178.364 322.688Z" stroke="#3F3D56" stroke-width="0.907703" stroke-miterlimit="10"/>
</g>
<g id="circle2">
<path id="Vector_30" d="M279.119 240.995C284.633 240.995 289.103 236.525 289.103 231.01C289.103 225.496 284.633 221.026 279.119 221.026C273.604 221.026 269.134 225.496 269.134 231.01C269.134 236.525 273.604 240.995 279.119 240.995Z" fill="#F2F2F2"/>
<path id="Vector_31" d="M281.841 236.457C287.356 236.457 291.826 231.986 291.826 226.472C291.826 220.957 287.356 216.487 281.841 216.487C276.327 216.487 271.856 220.957 271.856 226.472C271.856 231.986 276.327 236.457 281.841 236.457Z" stroke="#3F3D56" stroke-width="0.907703" stroke-miterlimit="10"/>
</g>
<g id="circle3">
<path id="Vector_32" d="M383.504 181.994C389.019 181.994 393.489 177.524 393.489 172.01C393.489 166.495 389.019 162.025 383.504 162.025C377.99 162.025 373.52 166.495 373.52 172.01C373.52 177.524 377.99 181.994 383.504 181.994Z" fill="#F2F2F2"/>
<path id="Vector_33" d="M386.227 177.456C391.741 177.456 396.212 172.986 396.212 167.471C396.212 161.957 391.741 157.486 386.227 157.486C380.713 157.486 376.242 161.957 376.242 167.471C376.242 172.986 380.713 177.456 386.227 177.456Z" stroke="#3F3D56" stroke-width="0.907703" stroke-miterlimit="10"/>
</g>
<g id="circle4">
<path id="Vector_34" d="M486.983 124.809C492.497 124.809 496.968 120.339 496.968 114.824C496.968 109.31 492.497 104.84 486.983 104.84C481.468 104.84 476.998 109.31 476.998 114.824C476.998 120.339 481.468 124.809 486.983 124.809Z" fill="#F2F2F2"/>
<path id="Vector_35" d="M489.705 120.271C495.22 120.271 499.69 115.8 499.69 110.286C499.69 104.771 495.22 100.301 489.705 100.301C484.191 100.301 479.721 104.771 479.721 110.286C479.721 115.8 484.191 120.271 489.705 120.271Z" stroke="#3F3D56" stroke-width="0.907703" stroke-miterlimit="10"/>
</g>
<g id="circle5">
<path id="Vector_36" d="M590.46 24.9618C595.975 24.9618 600.445 20.4915 600.445 14.9771C600.445 9.46269 595.975 4.99237 590.46 4.99237C584.946 4.99237 580.476 9.46269 580.476 14.9771C580.476 20.4915 584.946 24.9618 590.46 24.9618Z" fill="#F2F2F2"/>
<path id="Vector_37" d="M593.184 20.4233C598.698 20.4233 603.169 15.953 603.169 10.4386C603.169 4.92417 598.698 0.453857 593.184 0.453857C587.67 0.453857 583.199 4.92417 583.199 10.4386C583.199 15.953 587.67 20.4233 593.184 20.4233Z" stroke="#3F3D56" stroke-width="0.907703" stroke-miterlimit="10"/>
</g>
</g>
</g>
</svg>
