<svg width="812" height="669" viewBox="0 0 812 669" fill="none" xmlns="http://www.w3.org/2000/svg">
<g id="diagram" clip-path="url(#clip0)">
<g id="hop">
<path id="Vector" d="M152.948 517.845C152.948 517.845 454.759 265.957 628.584 517.845H152.948Z" fill="#F2F2F2"/>
<path id="Line" d="M781.532 518.752H0" stroke="#3F3D56" stroke-width="0.907703" stroke-miterlimit="10"/>
</g>
<g id="platform">
<path id="Vector_2" d="M648.206 668.75C725.408 668.75 787.992 658.997 787.992 646.965C787.992 634.934 725.408 625.18 648.206 625.18C571.004 625.18 508.42 634.934 508.42 646.965C508.42 658.997 571.004 668.75 648.206 668.75Z" fill="#F2F2F2"/>
<path id="Vector_3" d="M670.899 660.581C748.1 660.581 810.685 650.827 810.685 638.796C810.685 626.764 748.1 617.011 670.899 617.011C593.697 617.011 531.112 626.764 531.112 638.796C531.112 650.827 593.697 660.581 670.899 660.581Z" stroke="#3F3D56" stroke-width="0.907703" stroke-miterlimit="10"/>
</g>
<g id="charts">
<path id="Vector_4" d="M730.342 413.413C732.394 414.159 734.591 414.418 736.76 414.17C738.928 413.922 741.01 413.174 742.84 411.984C744.671 410.794 746.2 409.196 747.307 407.314C748.414 405.433 749.069 403.32 749.22 401.142C749.371 398.965 749.014 396.782 748.178 394.765C747.342 392.749 746.048 390.954 744.4 389.523C742.752 388.092 740.793 387.063 738.68 386.517C736.566 385.972 734.354 385.925 732.219 386.38L732.572 393.635L729.14 387.418C725.771 389 723.168 391.856 721.904 395.357C721.455 396.583 721.182 397.867 721.093 399.17C720.877 402.227 721.662 405.271 723.331 407.841C725 410.411 727.462 412.368 730.342 413.413Z" fill="#C4DFE5"/>
<path id="Vector_5" d="M747.326 497.559C746.115 491.389 751.365 485.919 756.551 482.363C761.737 478.808 767.797 475.314 769.567 469.281C772.11 460.609 764.535 452.667 758.639 445.819C754.264 440.737 750.508 435.154 747.448 429.187C746.117 426.844 745.211 424.283 744.771 421.625C744.306 417.781 745.541 413.956 746.785 410.29C750.93 398.076 755.361 385.964 760.079 373.954" stroke="#3F3D56" stroke-width="0.907703" stroke-miterlimit="10"/>
<path id="Vector_6" d="M730.923 411.545C732.975 412.291 735.171 412.55 737.34 412.302C739.509 412.054 741.591 411.306 743.421 410.116C745.251 408.927 746.78 407.328 747.887 405.447C748.994 403.565 749.649 401.452 749.8 399.275C749.952 397.097 749.595 394.914 748.759 392.897C747.922 390.881 746.629 389.086 744.981 387.655C743.332 386.224 741.374 385.195 739.26 384.65C737.147 384.104 734.935 384.057 732.8 384.512L733.153 391.767L729.72 385.55C726.352 387.133 723.749 389.988 722.485 393.489C722.036 394.715 721.763 395.999 721.674 397.302C721.457 400.359 722.243 403.403 723.912 405.973C725.581 408.544 728.042 410.5 730.923 411.545V411.545Z" stroke="#3F3D56" stroke-width="0.907703" stroke-miterlimit="10"/>
<path id="Vector_7" d="M745.603 371.449C746.409 369.227 747.76 367.244 749.533 365.682C751.306 364.12 753.444 363.03 755.749 362.511L756.909 369.408L759.061 362.164C762.049 362.208 764.945 363.201 767.331 364.999C769.718 366.796 771.472 369.306 772.339 372.165C773.206 375.024 773.143 378.085 772.157 380.905C771.172 383.726 769.315 386.16 766.856 387.857C764.397 389.554 761.462 390.425 758.475 390.345C755.488 390.265 752.604 389.238 750.239 387.412C747.874 385.586 746.151 383.056 745.317 380.187C744.484 377.317 744.584 374.258 745.604 371.449H745.603Z" fill="#C4DFE5"/>
<path id="Vector_8" d="M746.377 368.959C747.183 366.737 748.534 364.754 750.307 363.192C752.08 361.63 754.218 360.539 756.523 360.02L757.683 366.917L759.835 359.674C762.823 359.718 765.719 360.711 768.105 362.508C770.492 364.306 772.245 366.815 773.113 369.674C773.98 372.533 773.917 375.594 772.931 378.415C771.946 381.235 770.089 383.67 767.63 385.367C765.17 387.063 762.236 387.935 759.249 387.855C756.262 387.775 753.378 386.748 751.013 384.922C748.648 383.096 746.925 380.566 746.091 377.696C745.258 374.827 745.358 371.767 746.377 368.959V368.959Z" stroke="#3F3D56" stroke-width="0.907703" stroke-miterlimit="10"/>
<path id="Vector_9" d="M756.164 445.959C759.418 447.139 762.992 447.081 766.205 445.795C769.419 444.51 772.047 442.086 773.589 438.988C775.13 435.889 775.478 432.331 774.565 428.992C773.652 425.654 771.543 422.768 768.639 420.885L766.985 426.451L765.813 419.473C765.801 419.467 765.789 419.463 765.777 419.459C764.037 418.828 762.19 418.546 760.341 418.629C758.492 418.711 756.677 419.157 755 419.941C753.324 420.725 751.818 421.832 750.569 423.198C749.32 424.564 748.352 426.163 747.721 427.903C747.09 429.643 746.807 431.49 746.89 433.339C746.973 435.188 747.419 437.003 748.203 438.679C748.987 440.356 750.094 441.862 751.459 443.111C752.825 444.36 754.424 445.328 756.164 445.959Z" fill="#C4DFE5"/>
<path id="Vector_10" d="M756.835 443.436C760.089 444.617 763.663 444.558 766.876 443.273C770.09 441.987 772.718 439.564 774.259 436.465C775.801 433.366 776.149 429.808 775.236 426.47C774.323 423.131 772.213 420.245 769.31 418.362L767.656 423.929L766.484 416.95C766.472 416.945 766.46 416.94 766.448 416.937C762.934 415.662 759.057 415.835 755.671 417.419C752.285 419.002 749.666 421.866 748.392 425.38C747.117 428.894 747.29 432.771 748.874 436.157C750.457 439.543 753.321 442.161 756.835 443.436V443.436Z" stroke="#3F3D56" stroke-width="0.907703" stroke-miterlimit="10"/>
<path id="Vector_11" d="M741.49 469.367C742.05 472.55 743.687 475.444 746.127 477.564C748.567 479.683 751.661 480.899 754.892 481.008C758.122 481.117 761.291 480.112 763.868 478.161C766.445 476.211 768.273 473.433 769.046 470.295C769.818 467.156 769.488 463.848 768.11 460.924C766.733 458 764.392 455.639 761.48 454.236C758.568 452.834 755.262 452.475 752.118 453.22C748.973 453.965 746.179 455.769 744.207 458.329L750.487 467.781L741.906 462.764C741.24 464.9 741.098 467.164 741.49 469.367Z" fill="#C4DFE5"/>
<path id="Vector_12" d="M742.071 467.499C742.63 470.682 744.267 473.576 746.707 475.696C749.147 477.816 752.241 479.032 755.472 479.141C758.702 479.249 761.871 478.244 764.448 476.293C767.025 474.343 768.853 471.565 769.626 468.427C770.398 465.289 770.068 461.98 768.69 459.056C767.313 456.132 764.972 453.771 762.06 452.369C759.148 450.966 755.843 450.607 752.698 451.352C749.553 452.097 746.76 453.901 744.787 456.461L751.067 465.914L742.486 460.897C741.821 463.032 741.678 465.297 742.071 467.499V467.499Z" stroke="#3F3D56" stroke-width="0.907703" stroke-miterlimit="10"/>
<path id="Vector_13" d="M727.757 505.916C727.757 505.916 740.195 501.042 743.944 498.372C747.692 495.703 763.077 492.516 764.007 496.797C764.937 501.078 782.699 518.088 768.656 518.202C754.614 518.315 736.027 520.506 732.286 518.227C728.545 515.948 727.757 505.916 727.757 505.916Z" fill="#656380"/>
<path id="Vector_14" opacity="0.2" d="M768.907 516.711C754.864 516.825 736.278 519.015 732.537 516.736C729.687 515.001 728.552 508.773 728.172 505.9C727.909 505.911 727.757 505.916 727.757 505.916C727.757 505.916 728.545 515.948 732.286 518.227C736.027 520.506 754.614 518.315 768.656 518.202C772.71 518.169 774.11 516.727 774.033 514.591C773.47 515.881 771.924 516.687 768.907 516.711Z" fill="black"/>
</g>
<g id="bars">
<g id="bar1">
<path id="Vector_15" d="M188.03 374.881H155.081C149.14 374.881 144.324 379.697 144.324 385.638V507.542C144.324 513.482 149.14 518.298 155.081 518.298H188.03C193.97 518.298 198.786 513.482 198.786 507.542V385.638C198.786 379.697 193.97 374.881 188.03 374.881Z" fill="white"/>
<path id="Vector_16" d="M195.291 367.62H162.343C156.402 367.62 151.586 372.436 151.586 378.376V500.28C151.586 506.221 156.402 511.037 162.343 511.037H195.291C201.232 511.037 206.048 506.221 206.048 500.28V378.376C206.048 372.436 201.232 367.62 195.291 367.62Z" stroke="#3F3D56" stroke-width="0.907703" stroke-miterlimit="10"/>
</g>
<g id="bar2">
<path id="Vector_17" d="M291.508 288.649H258.559C252.619 288.649 247.803 293.465 247.803 299.406V507.541C247.803 513.482 252.619 518.298 258.559 518.298H291.508C297.449 518.298 302.265 513.482 302.265 507.541V299.406C302.265 293.465 297.449 288.649 291.508 288.649Z" fill="white"/>
<path id="Vector_18" d="M298.77 281.388H265.821C259.88 281.388 255.064 286.204 255.064 292.145V500.28C255.064 506.221 259.88 511.037 265.821 511.037H298.77C304.711 511.037 309.527 506.221 309.527 500.28V292.145C309.527 286.204 304.711 281.388 298.77 281.388Z" stroke="#3F3D56" stroke-width="0.907703" stroke-miterlimit="10"/>
</g>
<g id="bar3">
<path id="Vector_19" d="M394.987 228.741H362.038C356.097 228.741 351.281 233.557 351.281 239.498V507.542C351.281 513.482 356.097 518.298 362.038 518.298H394.987C400.927 518.298 405.743 513.482 405.743 507.542V239.498C405.743 233.557 400.927 228.741 394.987 228.741Z" fill="white"/>
<path id="Vector_20" d="M402.248 221.479H369.3C363.359 221.479 358.543 226.295 358.543 232.236V500.28C358.543 506.221 363.359 511.037 369.3 511.037H402.248C408.189 511.037 413.005 506.221 413.005 500.28V232.236C413.005 226.295 408.189 221.479 402.248 221.479Z" stroke="#3F3D56" stroke-width="0.907703" stroke-miterlimit="10"/>
</g>
<g id="bar4">
<path id="Vector_21" d="M498.464 171.556H465.516C459.575 171.556 454.759 176.372 454.759 182.313V507.542C454.759 513.482 459.575 518.298 465.516 518.298H498.464C504.405 518.298 509.221 513.482 509.221 507.542V182.313C509.221 176.372 504.405 171.556 498.464 171.556Z" fill="white"/>
<path id="Vector_22" d="M505.726 164.294H472.777C466.836 164.294 462.021 169.11 462.021 175.051V500.28C462.021 506.221 466.836 511.037 472.777 511.037H505.726C511.667 511.037 516.483 506.221 516.483 500.28V175.051C516.483 169.11 511.667 164.294 505.726 164.294Z" stroke="#3F3D56" stroke-width="0.907703" stroke-miterlimit="10"/>
</g>
<g id="bar5">
<path id="Vector_23" d="M601.943 71.7085H568.994C563.053 71.7085 558.237 76.5245 558.237 82.4652V507.542C558.237 513.482 563.053 518.298 568.994 518.298H601.943C607.884 518.298 612.699 513.482 612.699 507.542V82.4652C612.699 76.5245 607.884 71.7085 601.943 71.7085Z" fill="white"/>
<path id="Vector_24" d="M609.204 64.4469H576.256C570.315 64.4469 565.499 69.2629 565.499 75.2036V500.28C565.499 506.221 570.315 511.037 576.256 511.037H609.204C615.145 511.037 619.961 506.221 619.961 500.28V75.2036C619.961 69.2629 615.145 64.4469 609.204 64.4469Z" stroke="#3F3D56" stroke-width="0.907703" stroke-miterlimit="10"/>
</g>
</g>
<g id="person">
<path id="Vector_25" d="M732.247 431.682C732.247 431.682 740.789 462.434 729.969 466.99C719.149 471.546 722.566 432.821 722.566 432.821L732.247 431.682Z" fill="#FFCFCF"/>
<path id="Vector_26" d="M654.797 628.723C654.797 628.723 646.824 628.154 643.977 629.862C643.124 630.361 642.174 630.67 641.191 630.768C640.209 630.866 639.216 630.751 638.282 630.432C638.282 630.432 625.753 629.293 630.309 635.557C634.865 641.821 639.421 644.099 639.421 646.947C639.421 649.794 658.214 649.794 658.783 646.947C659.353 644.099 659.922 629.293 658.783 628.723C657.644 628.154 654.797 628.723 654.797 628.723Z" fill="#575A89"/>
<path id="Vector_27" d="M675.868 628.723C675.868 628.723 683.84 628.154 686.688 629.862C687.54 630.361 688.49 630.67 689.473 630.768C690.456 630.866 691.448 630.751 692.383 630.431C692.383 630.431 704.911 629.293 700.355 635.557C695.8 641.821 691.244 644.099 691.244 646.947C691.244 649.794 672.451 649.794 671.881 646.947C671.312 644.099 670.742 629.293 671.881 628.723C673.02 628.154 675.868 628.723 675.868 628.723Z" fill="#575A89"/>
<path id="Vector_28" d="M631.448 425.417C631.448 425.417 627.462 515.396 629.74 519.952C632.018 524.507 639.99 601.388 638.851 605.944C637.712 610.5 632.018 629.292 638.851 632.14C645.685 634.987 660.492 632.14 660.492 632.14C660.492 632.14 664.478 609.361 662.77 597.401C661.061 585.442 660.492 535.328 660.492 535.328L671.882 482.935L675.868 532.48C675.868 532.48 677.007 600.249 669.034 613.916C661.061 627.584 671.882 633.279 671.882 633.279C671.882 633.279 693.522 636.126 695.8 635.557C698.078 634.987 694.091 612.777 695.8 603.096C697.508 593.415 701.495 539.314 704.912 526.216C708.328 513.118 727.691 440.224 713.454 425.417C699.217 410.611 631.448 425.417 631.448 425.417Z" fill="#3F3D56"/>
<path id="Vector_29" d="M673.02 243.752C684.028 243.752 692.952 234.828 692.952 223.82C692.952 212.812 684.028 203.888 673.02 203.888C662.012 203.888 653.088 212.812 653.088 223.82C653.088 234.828 662.012 243.752 673.02 243.752Z" fill="#FFCFCF"/>
<path id="Vector_30" d="M658.214 232.932C658.214 232.932 661.631 260.267 659.922 260.837C658.214 261.406 690.105 260.837 690.105 260.837C690.105 260.837 683.841 244.322 690.105 231.223L658.214 232.932Z" fill="#FFCFCF"/>
<path id="Vector_31" d="M658.214 255.142C658.214 255.142 672.094 241.474 688.503 255.142L689.565 259.216L680.993 259.128H658.214V255.142Z" fill="#F2F2F2"/>
<path id="Vector_32" d="M725.982 429.973C724.666 430.235 721.443 430.77 717.24 431.408C703.248 433.521 678.453 436.722 677.576 434.529C676.437 431.682 672.451 421.431 669.603 425.987C666.756 430.543 668.464 434.529 656.505 435.099C648.367 435.486 636.539 434.29 629.99 432.411C626.915 431.528 625.001 430.497 625.183 429.404C625.753 425.987 632.017 361.066 632.017 354.801C632.017 348.537 634.295 318.354 634.295 318.354L617.928 286.15L616.641 283.616C616.641 283.616 618.35 277.352 623.475 276.213C628.6 275.074 653.088 260.837 653.088 260.837C653.088 260.837 658.213 252.864 667.895 253.433C677.576 254.003 679.854 250.016 692.952 260.837C692.952 260.837 708.898 267.67 714.592 271.087C720.287 274.504 726.551 274.504 727.121 280.199C727.235 281.344 726.614 283.548 725.549 286.332C721.648 296.538 711.791 314.596 710.247 317.409C710.11 317.654 710.036 317.785 710.036 317.785C710.036 317.785 709.74 328.024 710.053 340.012V340.04C710.361 351.538 711.227 364.642 713.453 371.886C718.009 386.692 731.677 428.834 725.982 429.973Z" fill="#575A89"/>
<path id="Vector_33" d="M698.895 215.638C698.497 213.824 697.73 212.11 696.643 210.604C696.209 206.439 694.82 202.431 692.583 198.891C691.706 197.232 690.462 195.796 688.945 194.692C687.208 193.692 685.226 193.197 683.222 193.265C682.859 193.259 682.205 193.369 681.617 193.396C681.241 193.28 680.861 193.176 680.48 193.078C680.257 192.583 679.817 191.142 679.694 191.24L678.033 192.559C677.331 192.437 676.625 192.342 675.917 192.267C675.659 191.531 675.401 190.795 675.143 190.06C674.725 190.718 674.358 191.407 674.046 192.122C673.341 192.087 672.635 192.075 671.929 192.085L670.518 190.73C670.435 191.108 670.243 191.453 669.966 191.724C669.69 191.995 669.34 192.18 668.961 192.255C668.311 192.321 667.664 192.409 667.019 192.512C666.967 192.512 666.914 192.512 666.862 192.511C663.386 192.424 659.646 192.268 656.739 194.177C655.379 195.111 654.272 196.367 653.517 197.834C653.161 198.076 652.804 198.316 652.458 198.573C651.293 199.368 650.282 200.37 649.477 201.528C648.891 202.528 648.447 203.604 648.157 204.725C647.048 208.1 646.534 211.643 646.639 215.194C646.758 218.77 648.107 222.195 650.458 224.891C651.949 226.493 653.844 227.676 655.337 229.275C658.411 232.57 658.987 237.164 661.616 240.65C664.397 244.336 669.472 246.762 673.929 247.457C676.609 247.861 679.342 247.732 681.972 247.076C684.601 246.42 687.075 245.251 689.252 243.636C690.296 242.909 691.183 241.978 691.86 240.901C693.408 238.225 692.752 234.862 693.326 231.825C694.403 226.132 699.836 221.355 698.895 215.638Z" fill="#3F3D56"/>
<path id="Vector_34" d="M622.906 433.39C622.906 433.39 631.448 464.142 620.628 468.698C609.807 473.254 613.224 434.529 613.224 434.529L622.906 433.39Z" fill="#FFCFCF"/>
<path id="Vector_35" opacity="0.1" d="M633.151 363.606C633.151 363.606 629.415 419.051 629.99 432.411C626.915 431.528 625.001 430.497 625.183 429.404C625.753 425.987 632.017 361.066 632.017 354.801C632.017 348.537 634.295 318.354 634.295 318.354L617.928 286.15C618.19 284.555 618.35 283.616 618.35 283.616L626.607 300.985L638.282 304.117L633.151 363.606Z" fill="black"/>
<path id="Vector_36" d="M620.628 280.199L616.641 283.616C616.641 283.616 611.516 313.799 612.086 321.202C612.655 328.605 600.126 440.793 609.808 440.793C619.489 440.793 630.309 439.085 628.601 435.099C626.892 431.112 631.445 363.606 631.445 363.606L636.573 304.117L620.628 280.199Z" fill="#575A89"/>
<path id="Vector_37" opacity="0.1" d="M725.549 286.332C721.648 296.538 711.79 314.596 710.247 317.409C710.293 310.125 710.321 304.972 710.321 304.972L722.28 280.484L724.843 278.491C724.843 278.491 725.116 281.503 725.549 286.332Z" fill="black"/>
<path id="Vector_38" opacity="0.1" d="M725.982 429.973C724.667 430.235 721.444 430.77 717.241 431.408C715.06 415.281 709.228 368.902 709.598 364.534C709.781 362.381 709.934 351.743 710.054 340.04C710.362 351.538 711.227 364.642 713.454 371.886C718.01 386.692 731.677 428.834 725.982 429.973Z" fill="black"/>
<path id="Vector_39" d="M718.579 276.213L727.121 278.49C727.121 278.49 732.816 341.703 733.386 352.523C733.955 363.344 740.789 429.973 739.65 432.821C738.511 435.668 720.857 439.654 720.287 436.807C719.718 433.96 711.439 369.708 711.877 364.533C712.315 359.357 709.467 305.826 709.467 305.826L718.579 276.213Z" fill="#575A89"/>
</g>
<g id="circles">
<path id="circleLine" d="M178.363 312.704L281.841 226.472L386.227 167.471L489.705 110.286L593.183 10.4386" stroke="#3F3D56" stroke-width="0.907703" stroke-miterlimit="10"/>
<g id="circle1">
<path id="Vector_40" d="M175.64 327.227C181.154 327.227 185.625 322.756 185.625 317.242C185.625 311.728 181.154 307.257 175.64 307.257C170.126 307.257 165.655 311.728 165.655 317.242C165.655 322.756 170.126 327.227 175.64 327.227Z" fill="#F2F2F2"/>
<path id="Vector_41" d="M178.364 322.688C183.878 322.688 188.348 318.218 188.348 312.704C188.348 307.189 183.878 302.719 178.364 302.719C172.849 302.719 168.379 307.189 168.379 312.704C168.379 318.218 172.849 322.688 178.364 322.688Z" stroke="#3F3D56" stroke-width="0.907703" stroke-miterlimit="10"/>
</g>
<g id="circle2">
<path id="Vector_42" d="M279.119 240.995C284.633 240.995 289.103 236.525 289.103 231.01C289.103 225.496 284.633 221.026 279.119 221.026C273.604 221.026 269.134 225.496 269.134 231.01C269.134 236.525 273.604 240.995 279.119 240.995Z" fill="#F2F2F2"/>
<path id="Vector_43" d="M281.841 236.457C287.356 236.457 291.826 231.986 291.826 226.472C291.826 220.957 287.356 216.487 281.841 216.487C276.327 216.487 271.856 220.957 271.856 226.472C271.856 231.986 276.327 236.457 281.841 236.457Z" stroke="#3F3D56" stroke-width="0.907703" stroke-miterlimit="10"/>
</g>
<g id="circle3">
<path id="Vector_44" d="M383.504 181.994C389.019 181.994 393.489 177.524 393.489 172.01C393.489 166.495 389.019 162.025 383.504 162.025C377.99 162.025 373.52 166.495 373.52 172.01C373.52 177.524 377.99 181.994 383.504 181.994Z" fill="#F2F2F2"/>
<path id="Vector_45" d="M386.227 177.456C391.741 177.456 396.212 172.986 396.212 167.471C396.212 161.957 391.741 157.486 386.227 157.486C380.713 157.486 376.242 161.957 376.242 167.471C376.242 172.986 380.713 177.456 386.227 177.456Z" stroke="#3F3D56" stroke-width="0.907703" stroke-miterlimit="10"/>
</g>
<g id="circle4">
<path id="Vector_46" d="M486.983 124.809C492.497 124.809 496.968 120.339 496.968 114.824C496.968 109.31 492.497 104.84 486.983 104.84C481.468 104.84 476.998 109.31 476.998 114.824C476.998 120.339 481.468 124.809 486.983 124.809Z" fill="#F2F2F2"/>
<path id="Vector_47" d="M489.705 120.271C495.22 120.271 499.69 115.8 499.69 110.286C499.69 104.771 495.22 100.301 489.705 100.301C484.191 100.301 479.721 104.771 479.721 110.286C479.721 115.8 484.191 120.271 489.705 120.271Z" stroke="#3F3D56" stroke-width="0.907703" stroke-miterlimit="10"/>
</g>
<g id="circle5">
<path id="Vector_48" d="M590.46 24.9618C595.975 24.9618 600.445 20.4915 600.445 14.9771C600.445 9.46269 595.975 4.99237 590.46 4.99237C584.946 4.99237 580.476 9.46269 580.476 14.9771C580.476 20.4915 584.946 24.9618 590.46 24.9618Z" fill="#F2F2F2"/>
<path id="Vector_49" d="M593.184 20.4233C598.698 20.4233 603.169 15.953 603.169 10.4386C603.169 4.92417 598.698 0.453857 593.184 0.453857C587.67 0.453857 583.199 4.92417 583.199 10.4386C583.199 15.953 587.67 20.4233 593.184 20.4233Z" stroke="#3F3D56" stroke-width="0.907703" stroke-miterlimit="10"/>
</g>
</g>
</g>
<defs>
<clipPath id="clip0">
<rect width="811.139" height="668.75" fill="white"/>
</clipPath>
</defs>
</svg>
