<svg width="622" height="70" xmlns="http://www.w3.org/2000/svg">
 <!-- Created with Method Draw - http://github.com/duopixel/Method-Draw/ -->
 <g>
  <title>background</title>
  <rect fill="none" id="canvas_background" height="72" width="624" y="-1" x="-1"/>
 </g>
 <g>
  <title>Layer 1</title>
  <path stroke="#fff" d="m3.5,47.09211c1,-1.19853 3.22273,-3.26479 7,-7.19117c6.41024,-6.66331 13.9203,-14.51839 21,-20.37497c5.93473,-4.90943 10.8657,-10.09129 14,-9.58822c3.57365,0.57358 11.35579,20.0875 18,32.36025c3.17387,5.86256 6,8.38969 7,8.38969c1,0 2.28368,1.6016 10,-1.19853c19.26111,-6.98957 41.42638,-26.89385 60,-44.34552c6.14658,-5.77531 6.56728,-5.70903 10,1.19853c6.24635,12.56929 14.62532,24.46628 19,28.76466c2.78833,2.73969 4.05725,2.64412 8,1.19853c11.19269,-4.10378 24.95332,-8.98781 33,-9.58822c2.9942,-0.22343 5.47578,5.06874 13,14.38233c5.9839,7.40695 10.07257,9.02954 12,8.38969c5.61937,-1.8655 13.59572,-19.5814 29,-28.76466c15.00888,-8.94756 26.67285,-8.05379 31,-2.39706c9.74631,12.74106 15.94379,27.65775 20,31.16172c2.56537,2.21609 8.33646,2.8355 15,0c10.98981,-4.67645 20,-10.78675 25,-10.78675c2,0 4.62531,2.51571 12,4.79411c9.73175,3.00659 23.92368,3.54219 34,-3.59558c9.15128,-6.4825 13.93414,-17.80498 16,-16.77939c2.92157,1.4504 2.08258,16.24695 16,26.36761c10.00684,7.27688 14.83771,6.18712 18,2.39706c4.74341,-5.68512 8.10699,-14.28527 12,-13.1838c4.35251,1.23146 16.14035,15.04081 35,26.36761c4.81451,2.89151 11.13593,4.36867 19,-3.59558c9.78174,-9.90637 13.58582,-25.16908 15,-25.16908c1.41418,0 0.17694,3.83431 7,8.38969c2.76257,1.84441 4.02997,2.98281 8,2.39706c4.09222,-0.60379 10.01068,-4.33016 17,-4.79411c9.0415,-0.60019 20.34912,-1.11546 31,-5.99264c10.44403,-4.78248 17,-13.1838 22,-21.5735l1,-5.99264l1,-2.39706l1,-1.19853" id="svg_1" fill-opacity="null" stroke-opacity="null" stroke-width="1.5" fill="none"/>
 </g>
</svg>