<svg width="320" height="32" viewBox="0 0 320 32" fill="none" xmlns="http://www.w3.org/2000/svg">
<path fill-rule="evenodd" clip-rule="evenodd" d="M320 21.3078L309.3 23.1178C298.6 24.8454 277.2 28.4653 255.8 30.1929C234.4 32.0029 213 32.0029 191.6 28.4653C170.2 24.8454 148.8 17.7702 127.4 17.7702C106 17.7702 84.5996 24.8454 63.1996 26.6553C41.7996 28.4653 20.3995 24.8454 9.69952 23.1178L-1.00049 21.3078V0H9.69952C20.3995 0 41.7996 0 63.1996 0C84.5996 0 106 0 127.4 0C148.8 0 170.2 0 191.6 0C213 0 234.4 0 255.8 0C277.2 0 298.6 0 309.3 0H320V21.3078Z" fill="#1E1F26"/>
</svg>
